<mxfile host="Electron" modified="2023-08-29T13:59:44.487Z" agent="Mozilla/5.0 (X11; Linux x86_64) AppleWebKit/537.36 (KHTML, like Gecko) draw.io/21.6.8 Chrome/114.0.5735.289 Electron/25.5.0 Safari/537.36" etag="Y3jHSnfe6e8orkiSIxXU" version="21.6.8" type="device">
  <diagram name="Page-1" id="ogLwvzPpEP--eljI7XF-">
    <mxGraphModel dx="1378" dy="843" grid="1" gridSize="10" guides="1" tooltips="1" connect="1" arrows="1" fold="1" page="1" pageScale="1" pageWidth="850" pageHeight="1100" math="0" shadow="0">
      <root>
        <mxCell id="0" />
        <mxCell id="1" parent="0" />
        <mxCell id="fAqAJMAxcw6unGzzySJF-1" value="" style="shape=image;verticalLabelPosition=bottom;labelBackgroundColor=default;verticalAlign=top;aspect=fixed;imageAspect=0;image=data:image/png,iVBORw0KGgoAAAANSUhEUgAAAmUAAAIlCAYAAACU149LAAAABHNCSVQICAgIfAhkiAAAABl0RVh0U29mdHdhcmUAZ25vbWUtc2NyZWVuc2hvdO8Dvz4AAAAtdEVYdENyZWF0aW9uIFRpbWUAVHVlIDI5IEF1ZyAyMDIzIDEwOjU1OjAzIEFNIC0wMwBULrMAACAASURBVHic7N17WFTV4sbxL4IOao56Ai+J5gmFEypGQaJYlCgpya9UUoPStCTNOFhy1CK1vOQlS00Ty6Sb2KnQMkwNU8PUMCk6mlQm5WUoFbyNN7YC8/tjQPEKKuiY7+d5eIrZe9Zee63B/bLW2hunO++804aIiIiIXFVVrnYFREREREShTERERMQhuLRo0eJq10FERETkuudks9m0pkxERETkKtP0pYiIiIgDUCgTERERcQAKZSIiIiIOQKFMRERExAEolImIiIg4AIUyEREREQegUCYiIiLiABTKRERERByAQpmIiIiIA1AoExEREXEACmUiIiIiDkChTERERMQBKJSJiIiIOACFMhEREREHoFAmIiIi4gAUykREREQcgEKZiIiIiANQKBMRERFxAAplIiIiIg5AoUxERETEASiUiYiIyHXNYrFUyr4XS6FMRERErlsWi4XXX3+dBQsWlLnvggULeP311ystmF3ZUPbjdEIa+lDv7lfIKLiiRxYRERE5i4eHB23atGHBggUXDGYl29u0aYOHh0el1OUKhrJDfJE4n00FwG/JzF1y6Mod+oJ+Z2oXH+q1GMlXCooiIiLXnR49etCjR4/zBrOS10v2qyxXLpTtTCHx80OYmt+Cl/MhFr+TzI4rdnARERGR8ztfMLtSgQyuYCjLSHyXb4xadI2fzXP318JI/5DE9cbZO/65mln/jqR9Cz8aN21D+0fG8eKTodRreDcj1pTab896Eof1I6S1H42btaF9l4GM+OBnDpZs37eASA8fGncdxoTHe+DfzIfGze4mbPCbfLMPwMKsrj7Uc+/KhAxgzwIiG/pQz92HyA/yKrs5RERExMGcGcyuZCADcKn0IwAcXMzcjy3wryd56j4PWtWPwOvzd0hKXM4zbbpSu2S/PxczqOswFvxlwiu4E1FNYMeGFGb9dAhc3E6Vt2c5z3SNJengLdzf/TG6uh1ny1fJJA6LZOPB+Sx5+taTuxrrF7OgfQ+iRnSFjYuZ9cl0+h90Y+28UO7s8STPtM0j4+MFfHPwFnr0C6aJSzWatKp1RZpFREREHEtJ+CoZLbtSgQyuUCjb8eF8Fu8x0XFEFK1cAP+H6d9+PiO+eIek37ryVHP7fhkJr7Ngp4m7xi5g/sBbMAEUWEh6ogfPfHmqvIwZr5D0560889m7PNuqmv3FgV3xerAHExLe4asBk+lYvK/ptieZ/0ksXi4Anaj9Vygjvl7M4j970L9fLP78ztQ1C/imwI8e8f+h45WJqSIiIiKnqfwIYqwn8f0fMVzcOLBmMs9ssL+cf7gaGD+T+P56Hh/bBhO/8026BWp3ov+jxYEMwMUD33+5w5fW4heK9zNgapc2TD3zeKZstvwJHUuG35p4cvPJs/SgeTM3WJPL7n3ATZV21iIiInINKj1lWfI98PeYvjz4xXyS/gAK8shYuJiMM7bv+PgdFj/Thh7/uMiC63ViYmI/fJ3PeN3FTJObgCPneZ9GwkREROQczreG7EoFs0pe6P87SXOWc7BmG6b+L4s9uad//fRaG0z7VjP3/d+BW7gr0AMOribxnZ85eQtAgYWNP+WWKrMR/v5usC+TDTke+PvfZv+6zYMDacv51aUR9Uxn1+T8qmFyBgwrxjnuOxAREZG/v/MFsrIel1GRKnXcyFgzn8Qfod5DkUScY6qw3v9F0nXieha8/w7fDBjLXTH/pscXw1jwUiQhaXcT0NjE7ow0vvr5ELiUJC0Td8UMo8eXw1gw+H62LAwm4CbYnZnGFz8eosnvt9HpjU7UK3ct3bnTzwPWL2f0I8P45l/g6vdvXuxZOQ+GExEREcdS1l2WV2oqsxJHyvJIfnsBO/Agok8nzjl4VbsTj/f0gJ2LSfw8D+p1JWHxbJ7reStsXE3ywjR2NAnnqe72gORatfh9NxXv95AnRuZykj5YzoYjnvSIn82S6RcTyABM+MdNZmLPWyFrOUkfpvFNZqlHa4iIiMjflsViYf369WXeZVmyff369ZX2Z5acbDabrVJKvkQHd1qgoQe1S8bwjN+Z2qMHE366jYnr3qG/FueLiIhIBbJYLOX+00kXs+/FcqxQ9ts79Oj6ChtvvI2O7X2oTy6b1qzmm98MvAbO5ouxd596ppmIiIjI34hjhTIOsenj2cz6MI1vNuVwkGrc/E8f2vcayLOPtaGe7pwUERGRvykHC2UiIiIi16cr9wfJRUREROS8FMpEREREHIBCmYiIiIgDUCgTERERcQAKZSIiIiIOQKFMRERExAEolImIiIg4AIUyEREREQegUCYiIiLiABTKRERERByAQpmIiIiIA1AoExEREXEACmUiIiIiDkChTERERMQBKJSJiIiIOACFMhEREREHoFAmIiIi4gAUykREREQcgMvBgwevdh1ERERErntONpvNdrUrISIiInK90/SliIiIiANQKBMRERFxAAplIiIiIg5AoUxERETEASiUiYiIiDgAhTIRERERB6BQJiIiIuIAFMpEREREHIBCmYiIiIgDUCgTERERcQAKZSIiIiIOQKFMRERExAEolImIiIg4AIUyEREREQegUCYiIiLiABTKRERERByAQpmIiIiIA1AoExEREXEACmUiIiIiDkChTERERMQBKJSJiIiIOACXK3kwm812JQ93TXBycqrU8tXmlUd9d22r7P4TEblYTrZK/pe/pHhdYM6v5OJQURcJtfmVo767tlV0/4mIXI5KGykruagcO3aM/fv3c/ToUV1ozsHJyYkaNWpQt25dqlevfvK1S6E2v7LUd9e2iuw/EZGKUCkjZaUvMDk5Obi7u2M2m6lSRUvYzlRUVITVaiU3N5dGjRpd8sVBbX7lqe+ubRXVfyIiFaXSQpnNZuPPP//khhtuoE6dOhV9iL+dAwcOcPjwYW666SacnJwu6cKuNr861HfXtsvtPxGRilJpv4rbbDaOHTuG2WyurEP8rZjNZo4dO3ZZU1Zq86tDfXdtq4j+ExGpCJUSymw2G0VFRdhsNk3BlFOVKlVOa7eLpTa/etR317bL7T8RkYpS4VcA3T12eS6l/dTmjkF9d21TX4jI1aZfy0VEREQcgEKZiIiIiANQKBMRERFxAFf0zyxdjJycHObPn092djabN28GoEWLFnh6ehIZGUmjRo2ucg3/no4dO8bWrVvZunUr+/bto1mzZjRr1kztLSIiUskcMpR9+umnvPTSS7Rq1YpOnTrRs2dPjh49yqZNm1i9ejVJSUmMHj2abt26Xe2q/q0sX76cyZMn4+zsTIsWLXBzcyM1NZUff/yRxx9/nGHDhl3tKkoZ1q1bx86dOwFo3Lgx7dq1u8o1EhGR8nK4UJaRkcGIESOYPn06nTt3Pm1b165dOXr0KDExMYwYMYLGjRvj7+9frnKN7akkvJLAJ+uzOYQ7nm1C6T94COG3mirjNK45TzzxBN9//z3Dhg3j4YcfPm3bt99+y2uvvUZ8fDwdO3Zk06ZN/Pvf/75wgWvjCRqQTF5h8fcmMx4tQ4kaOpz+d+hZXBXNarUyceJEFixYwI033gjA3r176dGjByNGjLi455/9nkjvBydhDFzCp095nnq9MJNpXXuT2HAUKxOjcLukmhqkDg0g5tf+fLpoCD7Ol1SIiMjfkkOtKdu/fz+DBw9m+vTpxMbGsmzZsrP2qVGjBnPnzuWRRx5h8ODB7N+/v+yCjUymDYwhYb1Bi/v70/8BP8hMYuLrKViKd0mfEIJ3UDxphRcs6W9p7ty5rF+/nqSkpLMCGUDbtm159913OXz4MLGxsRdVtmfXQQx5dghDHg3FPSeZSf8eQ2o5uqxMy+Pw9Qlj2k8VUBbXdv9v376dPn36cOTIERISEli3bh3r1q0jISGBI0eO0KdPH7Zv3361q3l5Kri/RUQckUOFsjlz5hAYGEjnzp0vGMwAhg8fzk033cScOXPKLnhHOunbwaffFN56cQhDXpjCp4uW8NGrEXhU8Dlca44dO8b777/PY489ho+Pz3n3e+edd8jMzMQwjIt4wKkJz3sHMejJQQz6z3jeejYU0/5vSdtUMXUXu3HjxmEymZg+fTodOnQ4+XqHDh2YPn06JpOJcePGXcUaiohIeThUKPvll1+47bbbAMoMZtWqVaN169b88ssvZRdc1x13E2SvSCblN6v9NTcPPGoAK+MI8Pam77sWyEsm2scbb9++JO2y72ZZnUBcrxACfH0J6NCNmNdSyTaKyy1MIz7Qm4BeMcT0CLLvE9qX+A8ysV5+c1wRW7duZdeuXYSHh19wv6effprVq1ezfPly7rzzznKXbxyykLcrD8vv6aSszMKgHh4NizcW5pH+djx9uwTg6xdESK8Ypi23UNK85KQyaUAYQQG+BHToTdwHWVj3JxPt64330ykYhdkk9PDG29uXuGX2dxk/JzOmfxhBfsXvGRlNiI8vMYvt2y1v98bXtxtxL0YTFuhL77gnL9j/jmznzp3Exsayd+9e+vXrd979+vXrx969e4mNjT253qxC/DiJMB9fug2Ko3doAL6+AYT0iiNhbd6pfQrzSJsVR+8OAfj6BRA2YBKpljPK2Z9J4vN9CQn0xTcwhL7Px9M30JugF9OhrP7+LYVJg7oVf0bC6Dsyicxr5YdPROQMDhXKfv3119Pu8isrmLVu3Zpff/217ILdwhkyOJhaPycR17U9IZFxTFuQibUQ8I1i/PQpDOngBuZABr06gxmTBxFcF6wr4+n7dALfmgKJ+vcQ+ncwk/VuDH2GpVDqsoN1iwVTl9HMSJjC8Hvh6wnRRL+ZdfkNcgWUtLmXl1e59m/SpMlFhDKDtBfDCAoOIqRLX8asgsDYUUQ1t2/LfG0A0a+lQ4fhTJnwDBHu2SQOjWbSegOwkvpaPIlbPHhk9BRGRXhg3W7BWjOQQZNnMOUJP0zOboQ+O4UZ06cQdZsJticT0y+eZIsH/zd4OEMi/bCuT8dy5pSkkUVahonQgaMYFDXwvP3v6ObNm0fz5s1ZuHDhaesvv//+e77//vuT33fu3JmFCxfSvHlz5s2bV8G1MMjONggePIW3pg0n3D2ThEF9ivvQIH1yH2JmpmH4RzFk2BDC3bNI22ScenthFgkD+zJpaS4+PYYwPDYCT8vXZJZMcZsv0N85ycQ9FkfyX548/sIURvULxFg+huihSZyZ+0RErgm2ClZUVGQrLCy0GYZh+/XXXy/qve3bt7elpKSc9frSpUttXl5etqVLl572+ooVK2zt27cvd/kHs7+2zXv5aduDd7eyeXl52Tr8+3PbzuJt377cwebV7nnb1wUle++0zX24lc2r+1Tb5vxTZWyd08vW6tYutqmbbDZbwde259t42TqM/bb0UWyfP+tvL6vU+8rj119/tRmGYSssLLQVFRWV+32X0+affPKJ7d577724ipbHmudt7W5tZes1+RPb1Cfa2bxubWd7Ojn31PZ9n9ue9veydRn7re1kM+X/YJvY2cvm/+yXtnxbvu3L//jbvNr0sk387Fvb1n1nlJ869FQ/FPthchebV6tetrnZpfbLnGrrcmsr29Mp9qPsnNPL1urMfWzn6v+LczX6rm3btravv/76tNesVqvt7rvvtt199902q9V62ravv/7a1rZt27ILzp5r69XKy/bgG1tPf73gB9vUzl62Vv3m2XJtNpstc6Kty62tbEOXlvqg539re6mTl63V4M9tB/d9bnv6Ni9bu+e+th08ucNB2+eDW9m87p9q21xgs+WnPW9rd6u/bUDpz0b+17bn23nZ2o0u9XN1jv7e/GoXm9dtfWzzLKdey/1ogK1Vqwdts7LKPs3SLrX/REQqkkONlLVo0YJNm85ecHS+ETOLxUKLFi3KXb75lmCinpvBp6lLGN/ZA8vyBJJ+PM/OhRaytxu4+QTiU+oGTU8/P9yxkL2t1G/7p91BZsbHywPTIQuWiljQXsm8vb3Jyclhy5Yt5do/KyuL/Pz8cpfvfms4QyaMJsIjj9TXXiI5p3jDrmwsRyB7QTQBfr74+vniG9iXpO1gWCxYMBEaO57+PrkkP9eXsOAg+r6SdtoI5ekMci0WaOCH382lXq5p4uz7a81czM2Ijqpu3bpn/by89957PPTQQzz00EO89957p23btGkTdeuWYwiwhr3NjCNnzgMaWA3AZKJa6ZedS7WwqRk+N5swLNlYcrKxGCZa3OHHqeY2YSq1+6EcC4dcPPHzK3Uvp8vp+5ybgWW7BYxMJnUt/vz4+dJhQjqGYSH7r7JPU0TE0ThUKPP09GTdunUcPXr0rG3nCmbLly/H09PzrH3PYlhIfTOR9JKQZPLgnkAPTBzEOFL8EkDpaS5nDzxvNpGXlU5WqfyVnZlJLh54Nj111cg/apxaB4WF9AwLRi0PPK6BKbBmzZrRoEEDUlJSytx32bJl9OrVi99///3iDuIWyqgJg/A5msqk/yTY27OBB+4mE36PvcWSz5ac/Pp0wacsmR6BJ0CDYIYkrGDD2iXMeLgxme+MYe73pxdtFJT8nwl3Dw/YlUlm6RsNj1hL9c35ndX/14CYmBhmzJjBzJkz+e677wD72r8SJf//3XffMXPmTGbMmEFMTEzZBbv74NcIslemkF4ql1nTUkjbZcLzttIhC4yjpXba/wPpWQYmDw88GnngbjLY/H16qTWWBkapH+9a9T2oVZBNZmapuF1gYJyn087sb1PdUEZ9fOrzs2TBf/l06aeMCir7NEVEHI1DPacsMjKSpKQkYmJimDt37lnbSwez6dOns2nTJiZOnFhmudbV03hpegqH5qcS2skP9wIL6cvSMRpEENzKvo+7hwcm69ckvpZErocJj04RRDwRTtKQRGIG5BJxtyfsSif540xqdZrCIy05eRHPWzSGaFMEoZ4mLGuTSVpr4BcbRfA18Ai06tWr06dPH6ZNm0aXLl3KvAOzrLs0z8d0xxCmDMui99gE4l7x478vhNO/ZyLR88Yw6XgEwbeYsW5JJXlhNj6jP2JKl2ySBvQhkf8j6n4fTEcNcDFjrlFcoIcHnqSQ+nYCnnebMXlFEN4ziuAFY5g2MJrcnsF4ulhInZ9EdiGUFd3P1f+Bl/Ygriumc+fOxMTEsHTpUmbMmHHe9ZUzZsxg3759xMTEnPXsv3Ny9uORgaF88lwS0RHZhLbzxHwoi7SVmVg8InirZ+nWNEidEE18Tjh+tXJJ/yyJlEOe9H80HHNd6N8jkej58USTTfhtZqw/ppCYZsAt9nebgqJ4pFUK0yYOIGZ7OMENDbKWziMlD2qVrtN5+jtwwSSmjjXzSCcf3Mklc/E8UnmE994fxMV/SkVEri7nF1988cXKKLioqIgDBw6cfJBleZjNZurXr09iYiIHDhygbdu2ODuf/nTJZs2a0bx5c2JjYxk3bly5Fp2bPIO571YTVssm1qxeS8Zv+/jHnb0ZPmE4oQ3sudTc3BvzzvV8uSSF5d9lY2oZTmiHMEJawPZvU/nsi5Vk7jbh13MUk+LD8HABbNtZmZjCntaheP+VykcLV5JleBI2cBKTnvA9x7TZhe3du5c6depQpUoVnJyccHJyuqj3X0qbA9x+++388MMPzJw5k9q1a9OqVavTtq9du5aYmBg8PDwYM2ZM+QrduZLElC007BRNmJe9jf/Rqi1Nty8hacEStnt0J7pfN3z4lbTFySR/sZLN+925PXIII3r5UMP5HzRt4MSWtZ+RvDCFtF3/IDRmPDEh7vZ2dfehqct21n6ZTMqqjeyqG0DEfaEEBzbEujmNJZ8vZfnPhfgEeXL0FwvuxfWw/pBM0noTwX3D8alxqrrn6v/gf5a/B69W3915551ERUWdNgJWMmpW8rPRvXt3oqKiLuqu2Rr/CuE+L8j9OYO0dRls+tNE0w59GTNhOMH1infatZakBVk07RTM0W/e56Nlm7DWD6b/i68yJMgMuOARFIyP8y4yUj/js2Xp7KrbnoA6W9hywo/eDwfiXtWdgHv9qLkng5WLU1i6bjsmv/Y03JXFvmbdePye4ofWnKe/Q4Pc2bUhlU8XfMbyDdsp9Axj0PBBBDe4uN83L7f/REQqgpPNZrNVZIE2mw2bzUZBQQHbtm0r9119pWVkZDB48GBuuukmWrduTevWralZsyY5OTn8+OOPpKen88Ybb5T7af6VpjCN+KBo0h94jxXPBV52cVu2bKFp06a4uLhc1IWhItoczv1nln788UeysrJ47LHHGDp06CWVez242n1X2syZM4HTpzIrxY+TCItMwmf6RqZ0qtxDVbZL7T8RkYrkUNOXJfz9/Vm2bBlz5szhl19+Yfny5YB9Ufq//vUvli1bVr4Fy3JROnXqRPv27U/+QfLc3FyioqJo1qzZJU1ZytVR6WFMREQqhUOGMrDfWaY/gH3lVa9enVatWp01hSkiIiKVy2FD2TXBOZjx6eV4eK3I39Ftw1mSNfxq10JE5G/DoR6JISIiInK9UigTERERcQAKZSIiIiIOoFJDmZOTE0VFRZV5iL+NoqKiCrkNX21+5anvrm0V1X8iIperwkNZyT9uTk5OuLq6YrWe+ffz5FysViuurq6ntV95qc2vLvXdte1y+k9EpCJVykiZk5MTVapUoVatWuTm5nLgwAGNAJxHyZPcc3NzqVWr1sknil8stfmVp767tlVU/4mIVJQKf6I/nHpK+YkTJzhy5AiHDx/GMAwq4VDXPCcnJ0wmEzfccAM1a9akatWql/REcbX5lae+u7ZVVP+JiFSUSgtlYP9NtKCggMLCQoqKinSROYeSURJnZ2dcXFyoUqXKydcvhtr8ylPfXdsqqv9ERCpKpYQyOHWhKRkF0EXm3EouDKV/Q7/Ui4La/MpS313bKrL/REQqQqWFshKlLzZybhV9QVCbXznqu2ubwpiIOJJKD2Wl6UJztsq+GKjNK4/67tqmICYijuaKhjIREREROTc90V9ERETEASiUiYiIiDgAhTIRERERB6BQJiIiIuIAFMpEREREHIBCmYiIiIgDUCgTERERcQAKZSIiIiIOQKFMRERExAEolImIiIg4AIUyEREREQfgUpmFHzx4kLy8PAoLCyvzMCIiIiJXnLOzM25ubtSuXbtCyqvUUJaXl0fDhg0r8xAi5WKxWPDy8rra1RARkb+R/Px8cnJyKiyUVer0pUbIRERE5O/K1dW1QrOO1pSJiIiIOACFMhEREREHoFAmIiIi4gAUykREREQcgEKZiIiIiANQKBMRERFxAAplIiIiIg5AoUxERETEASiUiYiIiDgAhTIRERERB6BQJiIiIuIAFMpEREREHIBCmYiIiIgDUCgTERERcQAKZSIiIiIOQKFMRERExAG4XO0KiIjI9c3b2/u82+68804++OCDK1gbkatHoUwqiMGqEf/HKJdRfDUuCNPVro6IOLytW7eyb9++84au2rVrM27cuCtcK5GrR9OX1xHrt4nEht+Hr1cQvh36M/zDX7FWWOkm7ogcTnzP1hUXyLbNo3urYSwrsH+7asQ9NL3Zn6Y3++N9233c//hY3v92b0UdrZiV5AEBxC2vwCKPZpE8si8hQQEEBIbQ+/kkso7aNxnL4gjolUB2yb45SfQNiCaldMfkpRL/YAghoSGEhHZj0vrTi89bHEeQjzchEzKLXzFIifXF2y+AgMBTXyEvppVd18JMpnUNIn71xZ9m2sggwl7JPHtDYSpxft4EDUu1f94KM5nUxRvfp1NOff4KU4kLjCY572KOaCXzgzh6hwYRFBxCWJ94kn827JvWjyHE1/e08/f18aXvh8UH2J9CTFDxtgBffH1LHXt7Ir3P7IOT9bxA++xKom9ADClHL+YcSk4lk8Sh3QgJDCCgQzdi3ky/vJ/NwnTGhJ46P28fX3yL2yFoZBoUphEf5I1vQEn7hND7+WSyi5vP+lMS8ZEhBAUGENShG9GvpGIpLMdxf55Gt9AxpJdnX+Cll17ihRdeOOfXo48+SrNmzS65CUSuRRopu14UZDBlxEcY/V5nxUNNIWsRb63+g4MF3pgr6FNg9u1A54op6rxaDE3ii6e8MQ7lsHnVJ0yJi2TdkERmP9Sogo5gxWpUUFEAGKRPjyPB2p+3Vr6Hp5HJtAF9iZ/jx6exPuUrIjuddMKZsXQIPs5nVjedWW/n0raDJ1mnbTDhN/hT/vuER8WcxmUzQ0YyqbtCCc9KJs1qPn3zEYOLbXZj9STi5psY/v5aQhtA3sp4+vxnGp4LhuMH4D+cpYlRuAHsTyXuwQQ8bnOzv7luODPWhtv/Py+Z6C6pl3V2l8dK6rg4kmsM56O1objtT2PMY0MZ02gpU7qay377uTgHMip1A6MAfpxE2LMGo5aPIrDk81OYBnjS/50lDGkJWNOZFBnDpMWhvNXDhGWTBY+B77Hybg/ISSE+8iUS7ghmfIeKHwMfN24cd95551mve3t7c/z48Qo/nogj00jZ9aLQwDBcaezdFPeaJtwDehI/tDONXQAOs/nDsUSG3kdA0H10jHiB9384bH+fZRmjej/AXUH30bH3WBZts+//w5vDuD/4Pu4KjmDgmxuxApsnR9D99W329xk5LHs5lvsDg/C97T7uf2oWq/4qrss3YwkIjSX28f50D4+gY7dhvJ9V3kuyCVzAVLcRt3cfwjszurBz0mQW5V5uA+WRMjSMkNC+JPxoJfXF4pGpLnGk7C/eY20CMb26EfZgGGFduhHzSiqWMqttIvDZ9/loQgSeJsDsR/Bt7lhyLGWGEOuyeMJCQwgZloLl9yQGdDlzpMwg8+1JZN07hIiby3mahZlM6tKNmHFx9O4SRtxr04gf1I2QAUmnRuvOV59FMQQNSOLkYJY1hbjgaJJ3leO4Jj/+r4uV5EXppCzMJrhHoH1E1UhjTNcQQh6cSJo1nak97e0eNigJC8DvifQOjGbSrHii+3QjrGs0CevtY0jZmVlYW4US2sB+CLfgUPzy0kn7HfAMZ8gjgdQqPrxlHJmT7AAAIABJREFUUSLfekXxyK3lbKfLZiVzVl/C+ieQacUeeh4MIvpji33z74n0DY0m6XfgaDqpq82ERobi5gy4BRMV3pi05Wn2z8j+dBIGhREQGEK3/pNIHNeboOfto57Zb/YmaGjqqVG1o+mMCe1Gws8XWV2zH37eBpbtFsCEz8PDGXS3R3EfWTGcG+PRsDiQFVpIey2abqEhhHQIofewRPs5liiwkvlmDN1Cgwjo0JsxyyyX0H52hlGhvyGJODyFsuuFKYinn/NnXVxPIp+ZxUffbDsZCqxfjGHYskbEffQlG9Z+yYdD3fgsbiKrjsDmhW+zznskX639kg9jg2hcGziyhrcSrPRK/pJvloynl7f5jClLg3WTn2K8JYjJS9eyMWM+Y1tsZNRTs9hcPBXJPmg3MpGFKcl8+CjMefkTdl7Kad3+IF0a/o+V/7vcf7zdCH91CStS32NQSzOhL65gReoKViydQnhdoDCbT15Lxvzkf1ny2RKWfDaHqNvccS3PwIHJDbcaxf9/NJPU9fkEBt1e5jSvufN4lqSuYMXkcDxuiWLO0hWsSP2U4W2Kd/g9iWmr/RgywO8cZRlkvtGt1PRdWKkwZ8av3xSmRLrz7S4/Rs0cTvD2NNLLCFfme8NpuyWVL4v3s65KJbNV+MlQVEYj4PlgOOaPhpJwNJwIr+Iam4IZtXgFKz4bQWDNQJ752N7uSxKiODnGV2jg8cB43nr/U97vZ2Lea8lkAx5NPeDHVFJz7H2ftzKVTMOAQsDNj/AOnsWhIp2kj3K559Fw3MpT1ctVkEfauGjis0KZMnMQfmbAHMiQCY9gzI4n8cdMEl5Ixv3Zl4m6Bci1YDHMuNc9VYS7mxljlwULkDl7DPOco/hv2go+TYjCfX8uJeNHnj2iuD0jiZQc+/fW5UmkeUbx0MWGT2smmb/WwtPr1MiqdVEcQQG++PZIwjR4PIOKy7TMj2fMz4FM+WwFK1Z+ypC6KcRNTCsVDHMxdZrCp6lrWfqCD+ljJ538xeZiaaRMrjcKZdeRxg+M5IuVs4i7x5XNbzxJx0cS2WwcZtUXa9m5bQkj+0Rwf3gEj728Bmvhn2zeDs3atsf01URix87j+5qtub0uULMV97b5gznPjGXm53k0C2h6eigoyGDRFzfSZ1hPWtQFXG7k9ief4YH8lSwtnmNzbRFEh6b2/3dv60/jnX+wswDH5eyOj4+J9DfjmTQrkeRVW3Fv43dxF3lrJomxcaS3Gs3oBy70zvIkPQvJryTjPngIgTXOtd0+fbkhfUPx15JTYQ4TZhOYa5hwrWHChAlzDYMyByXMwYQHWUhdbgGspC3Pwq9rMOWdYDPVDyfCvzZ+3cPxuJgp82oeeJSMhnl7Unu/hdxCMHcdzZTOVhKfCCOsRzSzfjSghg8+t5z+9rxlSXxeI4KooCtw+0mBhdTn+xCzyEz/F6LwKdU3plsHMX6wmbn9okltNYpRncv49BQAWMjclMvtncLtI60mD/xudadayT5uoUTdayE5OQuwkLwgi8CHyhs+LSQ+GURQYAC+XcZg6fAyo7uc6k3zA1NYu2EjGz7uj/FmDJPWG4CV9HVZeNz9f3jWADATGBoI6WlklawjM3vic4u9rd2CQwk0ZZG1pVwVOotCmVxvFMquN6ZG3P5Af8bMe51eB9/nrVUGUJU7Br7JFynJJ7++SkvkaR8wBQxh4Wfj6dU0j4+GRDJw4V6gEb3eXMD8wb7w/Swie0/jh8sdqLrEQGb88BlL/2pNh9aVfcE1Ezz2Uz56MQK/+iZyMxOJCY8meXv53m1sTyG+Xzzp/lN4b2zoyYumqZqJagXYR3cACgwMZxOmMk7HumwaifRnRKdLXHN0SUwE3h+MZXkqlrxUUrYEEn53eY9vAGZCB05h0OXWueSz4uxG8LMz+O/SFSxZ8DKBuZnQNYrg0iG1MJtP5qfTotdDZ6/HK1W3ipsk24PhP4opD1iY+lLyGYvjDYz9VlxrVMO633pytIu67ribDKylbhCwHjIwNfTAvczjmQiMisC0LJm09cmkWMOJCi7vz4IH/d9cy8o3IvA0+RDaJ9g+fXoGc/Nwwlvlkp5e1gR3xdP0pVxvFMquF38tIjZ8IDO/2obVMMjN+h8/7atNvRtv5N7772TrnKks+tW+jiz362lE9p3H1gKDze9OZs4vbtz76BDi7ndj8//+gL9WMuXlFRi+D/D0qEe5/a9f+Kn0mhIXfx64fy/vT/6YzfuBgr38MHcqi1w70KWca9vPz4ACMPbn8MPCafSLWUrj4cN4oOyr1+U5mkXymynsbBBIaI8oBsX2J7BGNlnlWE9lXZ9A9MAkzIPf560n/U4fWfL0pHFOOmm/G4CBZV06Oxt52kdFLiArM4uDWQn0CrWvwXr6YwuWhU8TNjSFi7qB8SKZAsMJ3ZdK0pxULO3CzzNKdwG3+Jz33C49VhtkvT2USdmhjBp8+lSukZ5Ecm4oUV1Ljx1ZSOoTRN+3szAAy9pMLLU88KjF5XO5nfCegYT+ZwqPHJxK3JtZJwOf8f004hZ4MPzjmYRnT+L5D4tDjrktwX47SVtWvK+RTerKrfgFtcWMB36t3PlhefH6xUILmT+fmr4EoPlDRHimMWZkCu69Ii4QPs/NdMcQhnfIYtrkVPtnx5rGmF7RJKy3f5KM7SmkZlbD08cDMBPYzgfL6s/JPgpgJT01HQKDTx3Xmk3W78VTymtTSTd88PE6//G/++47Zs6cyapVq87appEyud7o7svrRcPOxPT7gynTn6T9U3vB3Zt7+4wlJgDMjGL2vqmMj+7KyH1Q27s9A55/gmYuJqy+N/Hb6EgCngHXpgHETfIH9xxaFo5lYPBUDprcaNlnBA+6U2pNmIl2w6YT/+pUYjtNZ2fBDTRr9wBjZj1Fi8v8xG1+NYqmr4Kp7o00a92eXlPm06ftjZfZOKV5EBzqR/KEEEJeAZz9GDJ/CuF1PfCskcS0fonkFgCFJjw6jOJl/7LKM0ibn0B6DmQ934XkkpdrhDJl+XiCb45i1OAs4p9sT8IhqNYokMdHRuEJ8P00uj2XgtWwYtkPA7qk4FotmOEfjyL0uSWsfe7UUTJfCSO+YDxLnvODyx33KcwjJTaA1JJ04+xJ/7f/a19T5OxHeCcrvedaiXon8IwgdZzsD6IJWFDyfTX8nl3EWz3KcUyzH6F3JzItMoQEwOTZn7dKrys7HyOblAnxJOwIZPybQwg8LfHmkTIvBXPEe6ePnuFBxHNPkfnCANq/cZxqjfx4aOwIAk9Pc8SHBDCmJGjUjWDG4uEEXqh9Sq0Jw+TDoAnPkNknjjEt/8t4n3TGvJCG3wv/JbSRmdCJUfR9Ip5pt77HkNvciBgxgszYAYSlNsZ8dCfGbc8wo6c9SPoNHMUjw8bQLTgBj1ahhN/sTrXTHrvhRvgDfkx6ESLuv5S7bU0E/ns4gRFjmLo8kPGdAun/RCZjJjxAQM5xqtX1pG2fmYwqHuH0iBzP8F1jiOmahAG4+0UxZXSpaewa7hjL4+g2+AcsBY0JH1m8LvMc2rRpQ1paGnfccQeJiYnce++9p21XKJPrjZPNZrNVVuFbtmzBw8NRbsmX65nFYsHL6wK/rotcdVZSng4h5e6lvNXz/KvCLG/3ptfvg1j7cnDxKwaZE7oR7zKeJf/xuzJVrUAzZ84kLS0NV1fX0x4i6+3tffL7cz0yQ8RRbNmypcKuLxopE7lcR1OJ6xBH6hkDVKagUayYGVHuhfByvTPT9oFwkt/oQ9h8DyImvEX/su6iLB5NNeoGM+SNay+QATz99NMAzJgx46w/t6QwJtcbjZTJdUEjZSIiUhkqcqRMC/1FREREHIBCmYiIiIgDUCgTERERcQAKZSIiIiIOQKFMRERExAEolImIiIg4AIUyEREREQegUCYiIiLiABTKRERERByAQpmIiIiIA1AoExEREXEA+oPkIiJyVTWM2Hrebe1aVGfBS42uYG1Erh6FMmHzqxEMYzxfDPWuwFINVo34P0a5jOKrcUGYLrTrkWUMDFrJgxmT6axPpMh1Y4vlOHuthSwcc+7QVbumMyMTc69wrUSuHl0CrwkGO79KYua7i1j5Qw7WajfS7I4Qej3xOH3a3ni1K1fsMD98uIT8jj1p5w5g4o7I4cTT+sKB7EK2zaN7+EaiM+1hbdWIe+j34WEATHVvpNkd7en1xFMO1AbnkZ/P/Lm5TP/uOAcKq+DlX4cJA+rSsiYYa/7E9zMTi6fcSHOAPft56NmjPPxmI7rn5HL3yIPsqOpkb8OqLnR8sB6vPVAdEzZWzPiDl2o1ZPVj1U87nJH2J77f3cDG/5hPtX3hYZ5/8iAtpzYissYJVszfw0sr89ldVAUv3zpMGGivDzl7CX/+BEMSGxDifMZ5ZOfR6fkD/FZSH4CqNZn1tn1fI/sAz7+1n69yiqCOie5R9Rndtmrx8Y+z5L09TPzGsB/T71Qb/PTfnTy1qgAjv5DdvvXZNrRWuZp1xyIL4Z8Y5Jd6zXrChdiXb2aE54XeaWPhxGwG/88J88lzdMK3eyM+6V7GpzVzN63nODF3Rj38ncHI3ssj447QcogHIw7twndhNRa/5mbvy137CY87Sr83G9Hd9TDPP7GL+flOmJzB9UZXHn60HiP8y2ofG2tmb2Ooc33WD6hhP8dVOQQsr8Hyl+vS5Fx94mxixCQPIrf+We76lLRBx8eb8sa9VTByrEycs5+FWwvId61K+85uTI2ogfmMdlwzZxuP/1SLBa+50fJkOYXMH7uNtR1v4Y22Thdszufm5PLX3oJzbvtj1wl2fnTBjhT521Eoc3gGm98cxGPzq9Hr2ZF8+Mq/qOeSx09ff8yUZyJZNyyR2d0dYWg/j3Uff0x+i5JQBmbfDnSu4KO0GJrEF095YxzKYfOqT5gSF8m6IYnMfsgR2uBcbKz54C+mH6rLvDfr0LzwGBNH/8kzC6uz/FHXst9eoxZz365vDz3b8oh4IY93/Bsz8AKnazI7U+dIEQeBeiUvnihid6EzITVgx5e7efZnV+a+3gh/1xMseeNPHn+3KqsH31B2gHa9gbnnCmwnjjLx1f3k92rEd8HVMLbs5fEJu5jdxF7X3xbt5rlfqzP3dQ/8qx5n/owcnvnEleWPVadl78as7g07Fu6k0x9lN0mJJg948L8HSr6z8dP8nURl1aJH0/K82wn/hxqT0r1a+Q94pr1Wnn3VijmqEaNbV8FYU8b+zlXpN/pmRv/Lxp6MXKJm7KbJKx5E1rtQ+5TjM3KePjHOPyN4Rn3OeL3QYPbUPH5qdxPfvOiKacd+Hh+5m4meTXnZr3TIcsI3+EZGt6xGk9OOXYj1WNnVLjFlUD3atah+1usNI7Zy/Nx5TeRvS6HM0W37hPEJEP3RbAacnF28gXYPDePDgM5srd3IPv0X+AGm++GHr9x4eul0umydx8hXP+EHSz6Y/8m9A0YQ/1BTTID120RGvvwRq3ZCvWatuaPmCfAtLtrYxqLJE3lr2R9YccW99X3EvfQU7dxh8+QIBm68hRbksWfvXowmDzD2lf60+O4FOo5Yw579h6HPPXzkeicvLJ1MszkRjHSdwsJ/Nz1Z7oxFmzhoakjLe2/h4CKIzph8kcHNBC5gqtuI27sP4Z2m0D16Movumc4D7pff3NZf9vPc2wfIOGADVxORAxoQ29oZDhxk8Av7yDhSxO6GdXjN3+CdtBMcbFaXxTHmM0YQSnOi/WNNSDnuTD1XgOp09K7CO3tOYFCOC24ppsY1aOVq5bc9NrhQBjVXwXyskIMn8kl8xsKnrW9iffcijJpVqM0JVqwzaNXpJvxr2aCwKmHhNZk64QgbCm+gPQCFbPgoh4kr89lRzZWnnmpIbMsy7gnKOsySKjfwRvtqmAptmLzq8rD3AT7MOMHARkUsWXcc//BG+NcCqEbkkKb0qHrhURQK85n4bB71R3kQuXUXvtMKmfB2I+7P+JNO2XVZ3f/UhdyasYenVrow+uW6NC8OCNYt+3lp7gHW7AVcqxLWux6j25cdwqxf5RCw0oWnGhawZnsBu6tVZ/TQeoSUHpDNP8b0yXnsuLMhSR0vNtg5Uc//Rvr9cxufZpwgMuxC7WO7yLIrgLOJ2NE306+Gs/1z3aQGAe772LCnCHDGumYXXT84hgGQX8huL3e6tnUFCln4ioVJW4s4cMCG8dY2Mt4FqlZn+IQGdC/fAOhpjONFFXdeItcAhTIHZ92whp9ad2b6OZZ7mZr60gLgCFCYh9HiTb6a2BST5WP6jdlI51eTmO5zA4ZlJeMHxDHFM5n4eh8T+8wKmk1MZMM9jcCykikxa4tLNFj3chzv1XyGd1cG4W46zOa344h9YREfvmkfkjiY/y9i3utPi5qHWfVCFCPnBPHF0HF8k7GNmd3iyH8pmbjigLf5ZE0N1k2OZcpfUcxeOZsWNQ6z+cN4BhZe8sTmqTa4/UG6NHyMlf8zeKDjZZZ35DAvTbVSe2AT1vs5Y/1lP1N/MrC2roG5Tm3emFkbY82feM83ONi6ASndy3nzclVn6hXPUpF/jC9+stH+wRqYwH5hKydj21E25Vele8MyLta1XKhzpICD1nx+qlYV83aDHYcKOVjTmdoUsOOAE/VrwJrZ23jkjzqsHupMnSP57DhU/P7jhVRv48HySCd+W2ih67v7CSuZXs0/zON9s0+NqDWozYJJbjTZd4IDNV2pvfcAD8Xuo8nQpnSrU4UdewqgsJAduVWoX6dUCCs93XY+ztXwqlfIplwbO/4owKsJbNppo1VuIU0alApCe608Nyef9gM96F4yNJh/mInTrJj6N2G9vzNGzgGeGr3bPnLXBMBGxic78V5YUogTHQc05Y1ge58a+c6EDKxPbNUiVszYzkuLjhFSEgILC/hi9i7e2VODWaOqnxbIjR0H6PrIwZPfWwtd6XfOk6tC/Tqwe1d52sfGjq/+wjut+NtCG8Y/a5za94w+cfW+kZSRdahfVn0KT/DOS9nMLxnlqlqTqQkNCHMFajmfPC9j22G+yq1G9+L5SXP7Bqy2p3f2LLFwV2ZJgc50/8/NdOc4s4fvZNODTcucviyLceIqhFKRq0ih7O+iWmse7GkfCdv51TLW5e5lz/DHeL94s3H0EI0355C7cRk/tX2c2fc0sv8j7tGBB9vPYh1AQQbLvvyL3LpTeeybqfY3FpzAKPyV3wqgNtDs7g60qAlwA+0CvNn55R8YeF/4AluwiWXLbqBXYk9amO3vbdGzCy1eXVkpTXHJth5lDdV5w7f44vOvumdP7QCmOtUJ8byEp8kcOcbsV3axxsudpHvPnP87j6OHeeqJI3CiCMyu9Hi8HpENynhPTWfM+cfZs9XgYEsz7bMMMvKqcPCGatQHKAJwon3vm1icX5UmzgdPf3+1arRsaj+/5i1dqf9lIbsLsYey80yVWQvt/zXdaObVcdVxbeLElozyneL5VaFJQ1ixu4BNO6vQPbgKa34/wY7dRTRpX9z+hQbvzMhjR/uGJPuXqtS2Y6w57srLfvbXTI1qEXLzXj796QQDm7hQ1vSlqW5VmlS116F5Exd2bynAAPvnfO9RFh4y0+PGQ0xdlE9IpOvJz7+pSZ2z1nCVcYrl4ESTjg3OWFNWavP5pi/Lqs/5pi9Ll7HjAM9OtlLv0Ub0uworBDR9KdcbhTIHZw5oT8tJy/js156lpi/tjG0b2VrblxYl15VS/yib74pl4dQOZ4Wl3HfLOKBzU3pNS+Lpc4zMbT7zBQf49Bg/fMbSv1oT3fryR93KrQoXOfEIRo6V51/dy+52DVgQcWp0xVS1Cq5FNijE3n8nisjHCdeSPq1xA7PerkeTRRYiNtZk4N2mcqz7qkIdCtj4cxFNPP9BwP5DbPi5GkYNZ0zOLjT5h401R21Qx0RLgOxCDtSsSpNa2Eddz1L2aIXZ3YU6R4rYQxX8PU1AEWsOFNHkVmdwrkIT9yI2HrABxSMnJ2wY5Rgta9LIhT1/HWXT8Wr08HFixRfH2LHPmebFo4UZH+1mGnVJjqx+6TeUlEupNqhVgwlD6xHyVxW6jslldjsPYpte7IhQEbsPQH0vl8tqn8q0JyOXxxPz8e/vweiSGxKuME1fyvVGD491dE0fIr4fvBU9kCmLMtj612GsudtY98lkHu79H2asyjnrLY3v6Uzzb2Yx/qscDMDYtozhvYex6C9w79iZlt/OZcrXxdssK/lszV/2N7r407njYT6aPI/N+4GCw/zwRiyRkzeWY5qtKibTIXb+eRjO/O3WpRWdOx/mo+kfs9lqL3fzx0vZfPxSGsSAAjD25/DDwmn0i1lK4+HDKmQ9Gc2q077wGAs32od9jB0HeCnxEHsus1jr//J4ZMJBzL08mBdx+nQXN1elyd58VuTYABs7Mo+xo141mp92DXSiebg7/Q/v5/kvy9NozrjXLGDFRvD6pwst/+lExv+OYzI7Y6IqIe1MZCzfR8YRoPAES5YcwepXk4ByDt6dk3ctQooO8+G3J+znnL2fD3+tRoh/NcBEWGA1Mr4sPuaJ4yycto2u75a9Grxeg6ocyD7CbzVNNG9koknuEdYcrEqTG+3ryJ5Nc2F0zKl1ZCc1rU5753yWZBb3Zc4hVmyvRkjLCggX1V2oVwNMXjcyoWMRs97ax2+FF1OAjT0Ze3nnDxPd/KtyOe1TOYr4aXEOEfML6Rdf+YFs3U9HmfLRXpZ/f/ao4vECTV/K9cUBxjrkwky0GJzAQu8kZr49loefK34kRuv2PDh1PgPa3ghHNp3+lqY9mT7jMOMm9yfgmcOY3L3pMmgUnRsC9GTy1MOMe7k/AUMMav/zTtqZ3U4eq93z04mbPJHYTgnsKbiBxu16Ef+Sbzl+Y2/EgwO7sGp0VwJevIW+iYncW+oc2g2bTtzLE4m9ezp7ajak5V234H4JIWDzq1E0fbX4kRit29NryvyKeyRGzVqMjjvOc2/toPUbNnCtRvdH69vvYCy10N+an0/4kwfsC6LH3kTkBQ9v46ulB1iT68TGGTuYP6P4ZdcbmPVmfUIa1GVCd4NnxvzO1Hz7oxIGDfqHfbqptKquDHyiFosn5TLfvxGRxWunflv6J95flezkRMCjjZl3nzN1XE/w064bGNHQiSae1dgz/xDm4um9JvfV57U9u3n26Wx2F1WhiW8d3hhYjjsv4ew1ZSWPxHCtweihdXg2wULr2UVgNtE9uv7Ju0Sbd6vPhP17Th7Ty68OUx+yr9Eq/UgM6/Fc2jyZh6nZP0j+T23qNaxKnZ8OYTzkhqmqE80LjjHfuQ4jnG2sWXWI3w448VxsNs+drGDJ2rAbGDH0BM+9tYM2s7Ev9H+sfvF6Mnu/nLmmrFyPxDiNE/693YmM28XzS2sxr04Zu5daw+Vax5WHY+qf7Mfzt89VCCWFR5m/4Bg78p14bvjvJ9vWtaUb34yofYGbWkrYg//8d7fR5l0uuNC/rY8rKzOPceetrsz+fD+d7qhx2vb84wplcn1xstlslfap37JlCx4eHpVVvEi5WSwWvLy8rnY1RP5W7Av9zWyMN1/yVOuUj/ayMvMY1U1Opz25v2HE1uKHyjrR1udiFwyIXDlbtmypsOuLRspELle+lcFP5vLFGTOLppZubIgvz8iCyDXkf7l0mnUYKwBV6PiQ62WtfYvrdSOwl1c/2X/Wn1tq63P288tE/s40UibXBY2UiYhIZajIkTIt9BcRERFxAAplIiIiIg5AoUxERETEASiUiYiIiDgAhTIRERERB6BQJiIiIuIAFMpEREREHIBCmYiIiIgDUCgTERERcQAKZSIiIiIOQKFMRERExAEolImIiIg4AIUycQAGq0bcx10vrMW42lURERG5ShTK5KJYF8bifbM/TW/2p6mnP74dBjJ+Wc5llmrijsjhxPdsjalCanmJCvNImx5Dtw4BBAQGENS1L2M+zMRaahfrsjgCvL0JeyXTIepz6WWnEhcYTXLeGa//nkjvoHjSCi+t2CvaPiWOphIfHEDfd7Ov3DFFRCqBQplcNNNdw9iQncG2rK9ZGOvGqhcSWHXk8so0+3ags+8NFVPBS2SsnMjzX5joP38DG9I3sHRqBKbsTCxHT+5B+spv8ewUjLE2jaxLDC4VV5/LcMSohFHJK9s+J9W4nYhnh9P/bo8rdEARkcqhUCaXxgUwVaV2TfvYVskF3vrtPGIjHuCuwPu4K3Qgoz7ZdmrbhnnEdrsP39vuoWO3YQx//AHun/wrAJsnR9D99W32HY0clr0cy/2BQfjedh/3PzWLVX8VF/LNWAJCY4l9vD/dwyPo2G0Y72dVTLw4tN/KoVqe+Ljbvzc3D2f4C/3xqVG8w9F00tY3JnRgBIG5aaRtqZDDXnJ9rD8lER8ZRkiHEEK6RjNpmaX4nVaSBwUQvaBkTC2PpP4BxC0zwEhjTNcQQh6cSJo1nak9QwgJDSFsUBKWk0e2kvlm8Qhdl2gS1pdzbO587fNbAr27RDNmZF/CusQwadYYYnqE0Ht6ZvFnI4/0N2Po3TWMsC5h9I5NIL14BM9YPYaw0BCCAnzp9koKSc/3pVvXMGI+tkBh8bmE9iJ65FRS/zpjnDUvnYSnuxHSIYSgDt2I+yDr1GdxfSJxvcII6xJCSJe+jFlsQUTkalMok4tmfDuZ9l7+NPUMImRyDveOG0TnmoDlY2LHbKTdmCS+Sf+SrxJ7QmIcU34o3jZkKfUGJ7Lhx6/5YkZnzHvyzjFaY7Bu8lOMtwQxeelaNmbMZ2yLjYx6ahabC4p32QftRiayMCWZDx+FOS9/ws4KOC+3TlFEFM4j+tEYxrySQNLiTCylKmhkpJJeN5DAWwMJ9LeQtrpyp8suWJ+j6Ux7NgnT/7Nz/1FRlvnj/597YL091ns8JfSur+OnVkw3TAplchIThUJBWfzBiklhscpKykJJYJKWKCqEiWuJZWL+wNSwJEqJ8sdo6pSu9ENoIce1ZVxbh+xu2z31AAAgAElEQVQwOR7v3nCu7x+Dib8Af0/1epwzR+a+7uu6Xvd135x5eV3XMHElW7ZuYdPfQ7DnplF4qJVGtRBmvL+FLRunYr7JzNPrt7ClfAubCuL4eZ7ppANtQB7vbv2EtbE6hS8X05YrbXF8NH9iXnydpO5WbP+byqJ5Meg7rNgboa5kJjk14eSVbGLT5nfJDrSS+WIpdYA2YAabyrcwP9qXYzV2/J5Zwbvvb2LRaCN4NV1L+esk3H1uNHWUvjgFi/8M3t26hV3rU/GzV2BrGr+fND/iFm5i0+YtbPq7maq5BVhkQ6MQ4gaTpExcMu3BdD6xzCba2Ik+T04nc0hnAGo/LmO3o5qVGU8wNCqGkUmL2X3yRw5WHsHxcRkHHvgLaQ93RgM0Yyixj9x1/h6yhn2UfNCJ+PTR9LwF8O5E778+TfSprWyucp/SvmcwoXe5f/Z9MIgutf+ituHchi7DLSHM2LCZ16fEEGgE+weZjIjNwXoSQKdihxX6huDvZeDBYH9sWy20bX5Fp3xaMAGBAQQEBmAald+2pb2W4qmxYG0wEx7sA4DWNYoQPxuWT8/dJHYZOvjhf48GaPjdH4jvD3YcrcbbyvhoGpqXhuGmdmiaBu00DI06TnT2b7Viryoic8I4xiUkklXuRDtuo/acPjveE4LZp43XoO/Hsq8LIUMCMQD4hJD0XBz+TQ9cO+yUzh7HuAmJJM8tp/akA8fVWBYWQogr4H2jAxC/UHcMIXfBIR5NTCev22ukmdz7wQwPpfDOgtDzkq3aN69hLFcjITvNy4BfnxD8+oQQNTIQZ/gUyisyMJursOyw43AkYioBGnWcOpQfSSChc2uNaoQ8W8KmSacAaK8Z8PG6wnhuuoJrvBTetG18G1sYn1aq6oBfbB4rnmh5T5jW1jFrNdYKCtIL0Z99lxWPGMBZSmJY6VVqXAghLp/MlInLpvV+ioUZPpSkZlFihy4Dh3D3zsVkf3wEHdAPl5ExJp2So9Dl4SHcu2cZeafL7FtZ99Hh85cvvYOIHvo9K3PXU/kD0PA9+5ctoKR9KBH+1/Z6bG8lM252KVVNW6icn1uoOtkNoxH4qhyLK4q8Xe5N93ut75LatQLL1rbNlWm3+GDsbMTY2YiPj+HK4+kegtnbSvku98yYfqgUi82PkL4+gAHj/7bD9g+r+5uadZVU2c9fm7uq33S97PHReHBAILWlRVh/ANCxvZVG8pV+k1LrjTmwFktZ0z4yZwWFswuwOt196A0ahlvd90E/ZMNxNRN7IYS4TJKUiSvS5c/Z5Aw5xOzUxez3Hc3CRZHUv5qAqVcw/RPWo416iiF3AMbRLFwQxrFXEzDdP5ChyWU4b/VBa39uixr90heSadxFyiPB9Agay/QvAsha/BQ9r/G8rt/QJMIbikmLcP8Jioi5NswvZBN3J1RttVBvDsd8etO/lx8h4X5UbbNwFRYMLzkeOphJfTkO56uxhIWGEfm3cozpeSR0ddc1PzmVENtMwoIjGfNyFZrPOSmYIZDwAQ4Kxl5oo/+lu5Lx8Rk1h/lhdnJGBRMWGknaVl+iHvEDzmz0n1Jix/bWBHesEwqxNdJso38ihd/UUZ4eRlh4JFk7AHyIeWEO5q8yiQwJI3h4FhW+gfgbAC8zCSmBVMwZQ2JKGlm7fQk32yhIKbh+3xgVQogL+J1SSl2rxmtqajAa5WvqAveM14dfYHgolG4G90xZdtJCSF9P1kPX/q+T2e12unfvfs37EUII8dtSU1Nz1T5fZE+ZuG5OHd7K7Pk51J6E9obO9Hsy97okZEIIIcQvgSRl4vrw7kS/SbN5Z9KNDkQIIYTwTLKnTAghhBDCA0hSJoQQQgjhASQpE0IIIYTwAJKUCSGEEEJ4AEnKhBBCCCE8gCRlQgghhBAeQJIyIYQQQggPIEmZEEIIIYQHkKRMCCGEEMIDSFImhBBCCOEBJCkTQgghhPAAkpQJIYQQQngAScqEEEIIITzALycp078kOzSYoX+vvk4dnmD/W+vZ7bhwqfOdFAIeW89Fij1Hw5fkhQ9mxp5zjh9dz9heKZS4Lr/p2u2rWbf/xBWFJ66M7bUxhM213ugwWmWdHUbky1U3Ooy2aywnzZxIcd2NDkQI8Vvyi0nKnB+sZuPJmzm2bhXbnNejxzp2r1/P7qPXo69fptqdb1Oyv/5Gh/Gbprv0a9p+XVkmIyIiSSvx/Ozkqsbq0rm2IyuEEOfzvtEBtElDNSuXf0af9L/TZ/3fWLr+CIPGd/652Ll3NdPnrGLbv3Ru+8MD9Lm1mgM9cvkgvQfohynJncfrZf/CSXt87xtM2syn6OcLlbkxTPyyKz2p49j336P/v2hmvZRAz8+e5+Gpn3DshxMQP5B17R/g+c25RN9ykfh2zsI0q45+XX6k9pgTp3dX4rNnEe+vATqVb+WSvWQLB1waXe7rT5f/fELHaR+S89ARlo5JYNsd91H/2Rd0m/4eCwcdvWi8ju35pM/ZzEFXe3wfiCN33mi6OcqYkVbAttpTaF36kzxvOtF3XfoQO/euJjtnFZurT6D59iIi6Wky/9wDjQv0m6aRN2oBu50n0InDtEQjIu9DsrxaGocTVK6ax/Q3PuGgqyNd+gTR5d+fcNu0D8l66AhLx8SxUbuPjs4jHKvX6DM2Gt+9Zez+z/c49LuInZnN5Advdrfz1gKyl3/CNy7oeIeJ+GlTie9986Vf9IXG4fNCsuYWUeE4BR16EzM9m6S+BnfZgSJy5hRh/U6HDn6ET55BxhAjAJZpJvKJI9BVRZXNDoFJ5L0YhdELnBsSCSsxknCnA2uNDYcWQkZuBiG3u/u0f5RD1hIL9pPALf7EpM8g4X5Di/HY3kwkeY2N+h8c1DGFsG3tAY2Q5zcxY0Ar19hiPDq2DVlkrbGh46T2kIHH1rxL0j0a+o4sRsy2UP+Dg9tGZxPzQzHFXzowxr/OotHGFsfnLN+WkplSCOMXkT3sAuXN6TZKX8qicJcDp65j6BXHjFkJBBpajhVA/6aUnLmFWI/qoPlifnwGGaP80Fq6Xw0WskZlYTl5CofzR/aPDqPAGzS/BF4viKOVaC/v+fmmgDF/q8A/SMe6z0BIlC/2LRYcA/JYkRKI1kqfQohfEXUNVVdXK5fLdcWvoyVPq959X1AfHXepo+snKf8g988ul0u5qper0fcPV9NKatRxl0sdry5V00LvVw++sF+5XMfVR2kRavAL5erwcZdyuf6rPlv4uHrwsTXqsMulPnshQvlFLFKfHXOXvf/0w2pg1v6mfitVTniEmrnnIjGtGq/8RixXh10u5SqbqvzvGa8KK91lh1dNUr1HvKb+6XKpoxueVr2Dn1Zrvvyvu+zjl1T0PSY1ucylXK4alR91v3owaYP653FXK/H+WxWMMKnx6/+rXK7/qp0lFnW43qU+mxuhHkyzqOMulzr8canaaT8n1vo9ambfe5TxbpPy79Xsdc/9ynjneLXm2AXGsHKDmjygvxq//t/KdZF+XS6X+mjqwyp6Yc2Zvi5pHBap6Hv6qynNxmHw3P3u/ve+pAbfaVKPv1lz5v6HvqS+qHff/4Exi36+zsMfZ6vBfZ9W7x9r+Rmqrq5u/YF1bVfTHhmuZn5Sr5RSqr5imZq3dI+qV0op1x4185EINdPiUEopdcq2Wk0eFKuW2dxVtz8XpEJf2KNOKaXUqf1q3tB+atqWU+52iieoXiMXqMpTSilVr7Y/F6oicve7K9qWqfiRM9V2d7PqVMUCNfyRaWq7q5V4muzPjVChc/Zc0u9li/E43lYT+sar1Ufdb2uXxqqgSe+d1eeeWaGq3/jFao+j+di1PD57ZoWqiPmVqr5qtZowNFbNszSv3ALXQbXnk4OqaSTVh8+GqtilB1uPtWG/WjAyVi2oaIr8+HY1c8hwteAr99uW7pe7q/fUhKAJ6u02humO9TKfn5rFKjZ6gapsOKXe+1uQmlBcr1TNYjV85GJ1sOES+hdC3BBt+nxpo1/ATNkRNr6xDd/YIvppwMOPMXz+31j63l/o9+dOOD4u48ADf2HJw53d/6M0hhL7yDJ2nwIa9lH24VEctyzgiZ0L3M01/B96YzXfNEBHoNuAUHreBHAz/Uw9qP3wX+j0uOT/nbbvGUzoXe6ffR8MosvCamobTrD/vU/o9uQGov1ubiqLZUjPEip/rulDv1FD6KK1Fm80/R7qytKFacw4HMHwkUPw9QbDg/3RUueR4j2c4dERDLnQbJ53J4bPW0Nan2bHHCWkxH4BQG1ZGQcffOrMGN41hMwJmwl7by/OoUMu2O+Vj0M0Q/64joPNxuFeU9O4d3+Ae3330eVB92yooY+Jbkf3UssJKj/YRe3hQ0yP3/RzTb3RQOW3MMi/pTvUBl9ZsGImz+ye2TDcn0DG/U1lNRasDWZmBPsAoHWNIsQvn9JP60jo6gO0w9dodMev+eF/108U//dHaHqStNuMGDUAA37dfXF85UAHfvzUQsV3TgrTx1HovhrwMmD/DnC0EM8Vulg8WjsNzUvHedIdi/MnnXYdtPN+HzreE4LZp9mBVscH9AMFJK634IxewaIBzSvrlE8LJW3zj011E1ixPhV/L8BLw7kvn+RlTtDAaXPiuKVp/0JLsdZYsBxywN+TqTjdi5eO0VYH97Z+vy7L5T4/QYCmoXlpGG5qh6Zp0E7D0OjkuuzUEEJ4DI9PyvQ9Razcq1O7P4Ye85sONgKFq6gckYqhtQa87iI2v4jJPc4vqjz3wNUcjYbLrNdCvPy1kA8G7mLz+yVMjylh+MpCJphSeWdjBLvLNrMydSwbJ69hychO51XVOnbC17d5fOcs97Vw7d0u1K9fG6/nMsdB82pW18v9Uene4/N7+kx8jeWPnn+Nv0gNoAUmsOiVqPOf5RvxLRJDFBnPlJM4cQQWHw3NGMX89PDzUhXN69Kbdh73JWN+KsXTssgPXUFG39NXrBHybAmbJp0CoL1mwKep/bqSLDI/NbN2eQJ+GlS8FEnm6eeitVg7mEktyCZE1v+EEL8QHr7R/3s2vrkJ7akiqmv2nXl9uZDYkxt5/cMTdHl4CPfuWUbex0fQAd2+lXUfHXZ/gHsHMeThE6zLXU3lD0DDCfa/msLY3C/bsIn392jaj9T+58TlJ1jczKChD3Bw+QJKbO5vKTr2rKOs8iK9txRvw2FKZi1m901BxE5JIfYPhzjwzY9UvpnL0n/6MOjxVNKG+lD5xb8uOcouQ4bQbefiM2N4uIy8pf+k359MGC7Yrzv+jtrvOXb0qHssWxyj5uOgnxmHf15qpE3tLF1ASXXTeG7PZ+y41Ry87HvUzD0hmBuslFrd8xP6N8XkvFROHUD3EMzeVsp3uTeR64dKsdj8COnrc/H22sDHbMavopiiA+5xcX5eQHJ6MfbW4mnSYnKkV1H8YhqZb1W1fdO6bqFglYGMje+yds1aVuQmnD0jdjFtGB/fATGEBycw5zk/yp/LovS7Ztdxiw/GzkaMnY34+DRLT3UdbjLgqwHUYf+2/sy1tBRr1xDMt2ynuMTmPr/OQs7kLCw/tHUgWp4zq9uRT1p6PuXNruFGPD9CiF8Xz07Kqtax8kB/khPOmTa6KZjkifexe/l6DhpHs3BBGMdeTcB0/0CGJpfhvNUHrT2ARr9pC0m76xNSHgkmIGgU0yvvY/KTAW1YpOjM8IkROOYOw9Q/gVcu89v8hqEzWPKkxrqEYQQEDeaJN77H4KuhXXBmqoV4ve+g5x+/5/W4wZjMCay7dTyJD/0PXQL+P77JHYspaDAT9/yBtPigSw/SOJqF+RE4lyRg8g+mf8J6SPg7uUM7wQX7dY9ez9Hj6bM/k/5Bg5n49pHWx+FxWJEwuGkc/oPh1ksP9efxTBxGQK+BjHyljiEpw+l2NWY5DSFkvBSF8+URBIcEE/q3cujTGx9wz7q8HIfz1VjCQsOI/Fs5xvQ8ErpeYZ93J5E33Z+KqZEEhwYzYlYV/tED3RvKW4qniV9IOMZtmYSFhxEWHknWjmaFup2KHeVs32fjx7bG423Ez1BOcrAJk9mEKTiMEQlZlH8L+o4sIsPDmFJix/bWBMLCw4icUIit8dLGx2fIDLIfsTFvWlPdFvhEJ5HgXcS4hGTS0hfj7DsYQ1kamWXOFmNFCyR1wdP4vp9MZEgYYWMLcARFEXixL+ucyxBI+AAHBWPD3NeZVOROlJsc+9qKZZuFquYZ8o14foQQvyq/U0qpa9V4TU0NRmNr31e6Qg3fs//DLzA8FEo3g3umLDtpIaSvJ+shD1i3cFZTthv6PdwDgzc49iwmZephYje28G1OcdXZ7Xa6d+9+o8PweHUlycTvimJtbrh7ObWxjtL0aIq6r2TtX9u6Zn19/JJiFUL8etXU1Fy1zxeP31PWFqcOb2X2/BxqT0J7Q2f6PZnrGQkZADrHti9m5Kx/UQ90vOM+YufNkIRMeKT/6R6C/4YCxsUWumeTvYBb/0xStOclOb+kWIUQoi1++TNlQrSBzJQJIYS4Fq7mTJln7ykTQgghhPiNkKRMCCGEEMIDSFImhBBCCOEBJCkTQgghhPAAkpQJIYQQQngAScqEEEIIITyAJGVCCCGEEB5AkjIhhBBCCA8gSZkQQgghhAeQpEwIIYQQwgNIUiaEEEII4QEkKRNCCCGE8ACSlAkhhBBCeABJyoTHc76TQsBj63EAHF7NyO5B3HVnEHf5BWOKSCGv7MjV6+xIKWnDTAQEBJD2UfMCnaoNWYyLCCY4OJjg0BEkvmyhrrH5KTZKXxxD5IQCrHVXoc9GO5aXExkRYsJkDiZybCZFB5xta/PbcnKSRhAW4o41eeE5saJT9VYaI4Ynt7lN2+IRBASaMJlPvwIICBhBwTdN7bU2PkIIIVokSZn45dFCWVKzj8PVH/JOxh/Y/Xw6S21X3qx+qJi08QXwZDYJXbWzC+tKyZ9XQeDczezatYtd65MwvD+NBdbTJ9gpTU+k4GQcry9JwuxzFfp0VFFBONmle9lr3Ux2Xxs5s4pp/VJtFD43k6o+2Wyy7GLX+9kEfpHFtI2nM0Ud25uJJK8zkPrGIuLuNbQtWDT8nljBXute9lr38snCGIy3BxLYuS3jI4QQojWSlIlfJi/A+2a6DBxP7H2H+ccXJ664Sd2h4//sSvKGG9HOLexgxOjT7GiDDlo3/O5wv60ryWHet1Fkz4rC6HWV+rw9nNRnYvA3AI0/oZ/U8b3TiG9rjZ6souKbLoSE+rvb7OBPeD9fKnbsRwf4toispRD38gxC2pg8AvgOSCApzNj0ro7yVR9iGBWHuQOtjo8QQojWSVImftH06k1sq7yDbt1uvuK2DH3jSAi9SJbSwUzG3BAqJvUnODwMU0QBTMwmoSuAnffWWel2PxRNGEFkeCTjphVR0YZVwRb7BGisIn+UiYDAYKZ8HUL2c+G0Oq+l+eH3vzYsH1XhBHBWUb7bhu5OyahYX8zBAH8cC8cQGR7JiAlZlH6jtx7rveGEn55V++ZtCit6EzfKz/2+xfERQgjRFpKUiV8efRfp/QdiCgrGFLcebVI2yQHXuM8jxSQ/YyHw1U/YVb6FT95PRVuaSNYuJ+hVVH0N3BHCjOXvsqk4j5DvFpP5WsWV9+vlT+qGvXy5dxfze1mZMq0YexvqJM1LxfhpGiPCIxkzsxQ77fD390ejjqqv7dDOj5i5a9m0eS0Z91SR9UJRG5ZFT9OxrCzGGRFH+Ol8sqXxEUII0SaSlIlfHi2IzHc3sOWjD9m7r5iFj/c4f+nvKtP3WbAaQojq5Z4p0jqHEx7gwLKjKZXRjJhDAzF4AQZ/wgd1w3HIxlVLSTQfzMNCuG2fhYqTbTj93jiyCzexpXwTK8YbqLL1JCbaPauleWn0DB6IXwfAy4A5wozxUBX2tm7K/66Uoo98iRlr/nncWx0fIYQQrZKkTPwCaXT07YThlpuveTL2c4/d/fD7zkr5101p1nfllFeAf/cuoPUmpK8T69Yq9wKhbsOy+yDGXoHNlhqdVLyZSdrsUmxtTH5sqxIZM70U20mg0UlFuQV7V3/8OzQ76dtSctIzKfj0Iunfd+VkPVuM76QZxNwO4IM52B/bju3Y9aa4tlk51isQv2Z74ep25JOWnk/5d+c3WbWuiMqgOP7cbGmyxfERQgjRJt43OgAhPMaBfEaML8IO6E4npJswae0ITFnH648mkfdcPjlTRxD84ynQutB7+CJeGOVev4uano39xUwiQ45xyqsjPR+ZSt5f/Jo17sT26XbKbRpRz0S5Z6la6zM6iah5OSSGZuGkHb69/kR2bgLNW+W7KiwflePbK4mkvmfvNnP+o4C0F8oxPPk6eaOMPx83Pp5NhiOLxIgF1De257ZeUcyZFYexWd1jX1uxbNMxxqcSfnvzRi0UlTgZPDecs3bC3dPy+AghhGjd75RS6lo1XlNTg9FobP1EIa4xu91O9+7db3QYQgghfmVqamqu2ueLLF8KIYQQQngAScqEEEIIITyAJGVCCCGEEB5AkjIhhBBCCA8gSZkQQgghhAeQpEwIIYQQwgNIUiaEEEII4QEkKRNCCCGE8ACSlAkhhBBCeABJyoQQQgghPIAkZUIIIYQQHkCSMiGEEEIIDyBJmRBCCCGEB5CkTAghhBDCA0hSJjyAzrapg3no+V3oNzoUIYQQ4gaRpMxjnWBb2mACHltP7XXqsXb7atbtP3H+8TcnEhBTyMFzC/QvyQ4dTErZ+XUujUafsRlkjr4P7Qpb+sX5rohxpmRKT97oQNrKSfEEE2kftXJaXTHJwzKxNF2X80ARmWPDCDabCA4dQeJL5dgb29Bdox3Ly4mMCDFhMgcTOTaTogPONlTUsb2fxbiIYExmE8HDxpFVYpOkXwjh0SQp81SHN7J0O3T8ZxEr916fj5LanW9Tsr/+vONdRo4m4mgJK/ecHYezbDUbtQgSH775ivs2BIQyJODK27luvi0ieVgYkbMtNzqS1jVWUZAQSeTYfCrakgi1yImzDY+j/f1S7KFxhHQA0LF/Zcc4cQVbrXvZuioBw/szKbC0oSFHFRWEk126l73WzWT3tZEzqxhba/Ua7VTVGIh5dSt7rXspSffDOjuH0h9a71IIIW4U7xsdgLgQnd3L36Z2yAxyDAtIWb6NRNMQfE8XH91F3osLWLe7Du7oSr+esPtoKO+sfYwunKDyrQVkL/+Eb1zQ8Q4T8dOmEt/7Ztg5C9OsOvp1+ZHaY06c3l2Jz55FvG8ZE6MWsNt5Ap04TEs0IvI+JGtgU3+GUOJHLuaJN8tIfjC6KY7DrFv1GffGF9HTG5x7VjN9/tvst58Cwx8YNGEqmX++C81VxkTzKrShsP9jHyaXPA15mbzyWR3c9Aeip2WTNrATlbkxTG+fxzt/uwv0I5TNz2XRe/uoPXUzXfpFkzb9KQbdwcWvwf8qzLEdKmTMWCuB8b7YrFXYj/sSNT2PpL4GAJyfF5KVW4q9ERzf2vFLeZdNjxoBG4UTkimyOXD8YCYj1w/LG+XYG0KYsT4DM3YsC7PIL7PhbADfoDgynk8g0HBuAE4qFieTuc9Mdn7SBcrPPrfqrRxy1lXgOKmj32Im6cUZxNzTNA51FvJfLMDiABw2nIEzWDc/Ch93IdbXZpJfasPZCIbuUaROT8Ls09IY/ETplHjyv9JxfudEt4UR9hLgFUjqmjyibmkWWmMVxaUQ9bJ/0wEN/0czOP1O153oXl3wu6MN9+z2cFKfOd3uT+gndXzvNJ75XbgYLz+inkk93SOnnDr4+GHs0HqXQghxw6hrqLq6WrlcLnld6uvwGjX6nuEqZ79LuaqXq+i7h6ucvU1l9ftVTnh/FT3Xog4fdynXsUq1JulhZYx6Tf3T5VJH109SA2MWqZ129/mHP85Wg/s+rd4/5lKusqnK/57xqrCyqWzVJNV7hLuey+VSH019WEUvrLlwTAfXqNF3N8XkcqnjH7+gHrx/qrvd6uVq9IBJqnDvf91l1aVqyoAINW2nS7mObVCP39lfPb6kUh13uZTr46mqd/hL6ot6lzr+Zbl6v6nOZy9EqMFzK5XLdVx9NPVh1XvccvWZ3aVc9f9WO3MfV73DX1Kf1bd+DRd7VVdXt/7A2pap2KB4tdrufusonqz6jV6mDiqllDqolo3upyaX1iullDpVMU9FDJimtp9qVv/oahV//3A1bfNB1fxw7cp4FTp+mTroUkqperVnznAV+tx2VX+6TtBk9V69Q22fFasiJq1Wla62/HbVq0rLHlXb1JFjzQQVNPFtd5tKqf1zIlToC3vccbi2q2mDItSCiqZzN05Ww595T9U2KKXUKXVwebwKnfSecrQ6BkopVauWPRqkppRfPLJTlpkqYtLb7vaaR7xxiuoX1Et1vz9CTSk+eMG6F9RQqRaMDFK9enVX/R5foPYcb3vV7S+EqqD7u6tegyaoZV+dar2CEEJcojZ9vrSRLF96oMqVq/jHfaOJ7QEYI4kfdIQVhVtxAtRsYXN9GJOfCsJXA266i+hRwdwGwAm2fbCL2sObmB4fw9CoGJ6Y8wnOxv9Q+a277fY9gwm9y/2z74NBdKn9F7UNbQjqjiFMGFbHulW70Pmesjc3ocWOZtBNUPtxGbsd1azMeIKhUTGMTFrM7pM/crDyiLtuu/sYPvou936xPwbTr76E9GfzWfevzvTxP2fJsmEfJR90Ij59ND1vAbw70fuvTxN9aiubq67wGtqinRHj7e4ffXr40fEHO45GAA3tJtD1n9yFLh06GDCcO9fsbcQ8wK/Z3jgn1t1VGAf8Cb8OAAbM4WawWqg6vZTYYKd8WjzJJQYSno/Dv9lsTt36REyBAQQEBhBgHkfRkdMlGjgs5EweR2JSItM22tCPO3GcLu2gwU9O9x4q3YmOAc0AoLN/qxV7VRGZE8YxLiGRrHIn2nEbtafjuegYtIWT8g1WAkeenpU7wxCdx669X7J3fQL6a8nkfNrGZXkvf1I37CKZvb0AACAASURBVOXLvbuY38vKlGnF2NsYTciLW9hb8SWbnvOl+G+ZlMvypRDCg8nypadxbuX1tw7jdM6if/dZPx/WvVezbnIoEwBa/ID8PX0mvsbyRzudX7TzAqe3OZnR6Pd4LL6xq1j3cAAb/3Ef8bN7/FxqeCiFdxaEnr9R3/WV+1+vpve3hJKzuQf7P97Gxjf+ysjtM3hndnBbg7iwq5WQtdi2kZhn/0J5SjwjNhjQbvIn7qUkAr3Or6Jd4FjLjqEHzSfv9ixmzizG/EoMxqY2fIblsTnYySkAr/b4nl63O1RI1ss2YjasIOZ2YEcmwa+eSXL8n8wgfEImY2ILMWi+BKZkk9DVXaYDfrF5rHjCeIlj0AZHSin+NoTUkIsvTRrujiKqVw4FVhv09b/oeefRfDAPC+G2eAsVJ2MuYSlSwxgahXnuFKxVEH6Fj5sQQlwrMlPmYQ6+tZptf0xlZ80+qn9+fcjCgYdYt3wfevcwIm7dwiuL9+HQAddhSjbs4hgANzNo6AMcXLqAkmr3NyId2/MZO241B9vwwdpR+z3Hjh51z65c6Pwe0Yzr90/yUtfjGDKa4U0JQpeBQ7h752KyPz6CDuiHy8gYk07J0fObcO4pJPut7+k2+DEyJ/WHL75oir2JdxDRQ79nZe56Kn8AGr5n/7IFlLQPJeISPr+vPiflS8rxz93Eu2vWsnbpDOLubXHTVxMD5n7+2He8h+2kux1ruRXMIfifTt68exM12kz4s3k8Vr+AtNeqznxLsIMBn85GjJ2NGG/3OZPw6To6BgxNIdgP2fmpWa/2dwqoemQFm9atZe3KRWREn56903hwQCC1pUVYfwDQsb2VRvKbrW6db5Oq4mL0iJizk1WnhazYRAo+rXOH/m0p5RXt8PNvnhQ6qXgzk7TZpdia/afDtiqRMdNL3WPX6KSi3IK9q//Zs4k78klLz6f8uzPH9M/zGROfg+WIeyTrLOVYT/bE3++qXKYQQlwTkpR5EtcuVq75ntiUP9PlrIJORKfEY/hgFRsdPZi8KIPelfOIDBqIKSqL3Y2dMHi3oz1gGDqDJU9qrEscRkCvgYx8pY4hKcPp1oY50Z6jx9Nnfyb9gwYz8e0jFzijE0Mej6TjT52JfTL4zKzYXaNZuCiS+lcTMPUKpn/CerRRTzHkjvNbMHTrQcc9WYSZB/LwC/9i0KRYup11hka/9IVkGneR8kgwPYLGMv2LALIWP0XPGzqvq2HsqlMUH4DJ7P7zDGGjEsnfUYd7o38kYWPzqXBZmBkVRlh4JFlb3QmBcWw2Gd2tJA8LIyx0BPl1UeRNDeG8lE7zJ2nu0xjWpZG1o5U/+3DPY6QOc1DwZCLJU9Io0kIIca0mea4VAENXPxx/jyTAbHL/SYiIMaS9UYET8Bk1h/lhdnJGBRMWGknaVl+iHmlrtmIkJDyQqrlhhIWHERaRduYbjbqV4o98iYk+py2DmYTx/lTMjcZkMhE6oRjiX2HGI81HwInt0+2U76jA3mxV0y86iajGIhJDTZiCI8g8EEh2bgLNezj2tRXLNgtVdc2GstdjpAY7KHi8PyazidhXHUTlznHPKgohhIf6nVJKXavGa2pqMBrbuEQi2kinduc2arsMot9dmnum7PkUXjfm8sGUHq1X/42y2+1079798hs4VMi4ZxwkrcvArAHo2FclM2JHOJuXxpy3f+qGaqwgf1QO2ktrSbrbfUg/UMC48TYSLHmEX6M/BucsS2PM1nDW5oafn3AKIcSvVE1NzZV9vjQje8p+iVyHWPl0ARlHT4H2P3R7OImFkyUhu6Z8Agm5M4ecsWPQvHHvkfM2kjAp3LMSMgCvLgQOMFAwdQyWnxMwDb+UDFrY6nWF6ijfUIV5fLYkZEIIcZlkpkz8JlzxTJkQQghxAVdzpkz2lAkhhBBCeABJyoQQQgghPIAkZUIIIYQQHkCSMiGEEEIIDyBJmRBCCCGEB5CkTAghhBDCA0hSJoQQQgjhASQpE0IIIYTwAJKUCSGEEEJ4AEnKhBBCCCE8gCRlQgghhBAeQJIyIYQQQggPIEmZEEIIIYQHkKTs16RhKyn3x7HUdvZhx6qJBDxVhn6Nu3e8nUJAUDplP1zjjprUbl/Nuv0nrk9n18p3RYwzJVN68kYH0lZOiieYSPuoldPqikkeloml6bqcB4rIHBtGsNlEcOgIEl8qx97Yhu4a7VheTmREiAmTOZjIsZkUHXC2oaKO7f0sxkUEYzKbCB42jqwS2zX/Hbhc1tlhRL5cdeMCOOd+gZOKxeMICwwgYFQBtpbqnutIKWnDTAQEBLT+nDSjf93sGRmWSM5H9kvpVYhfBUnKxNXRUM2Kwi/o6L2L19cfvi5d1u58m5L99delr/N8W0TysDAiZ1tuTP+XorGKgoRIIsfmU9GWRKhFTpxtyGzs75diD40jpAOAjv0rO8aJK9hq3cvWVQkY3p9JgaUNDTmqqCCc7NK97LVuJruvjZxZxa0nCY12qmoMxLy6lb3WvZSk+2GdnUPpVf4PQ11ZJiMiIkkrqbu6DV+my43n7PvlxPpyImnWQGakh6BdQjv6oWLSxhfAk9kkdL2EmrqV/GcK0ce6n5HN8wKpmp1J4beXdBlC/OJ53+gAxPXl2J5P+pzNHHS1x/eBOHLnjaabdoLKtxaQvfwTvnFBxztMxE+bSnzvm2HnLExz6gjtdJitp6J5a20C3S7w1Dg/XMY6RrNw9vdkzFrFtsemM+impkL9MCW581hU8hXHtDvoM6gr9SU646wLib4JnHtWM33+2+y3nwLDHxg0YSqZf74LzVXGRPMqGPw/OA//yDGnRr9Js8jqt4+JUQvY7TyBThymJRoReR+SNfAKB+dQIWPGWgmM98VmrcJ+3Jeo6Xkk9TW4r/HzQrJyS7E3guNbO34p77LpUSNgo3BCMkU2B44fzGTk+mF5oxx7Qwgz1mdgxo5lYRb5ZTacDeAbFEfG8wkEGs4bRSoWJ5O5z0x2ftIFys8+t+qtHHLWVeA4qaPfYibpxRnE3NP0QVhnIf/FAiwOwGHDGTiDdfOj8HEXYn1tJvmlNpyNYOgeRer0JMw+LY3BT5ROiSf/Kx3nd050WxhhLwFegaSuySPqlmahNVZRXApRL/s3HdDwfzSD0+903Ynu1QW/O9rwoX17OKnPnG73J/STOr53GvFtrZ6XH1HPpJ7ukVNOHXz8MHZovUvnhkTCSowk3OnAWmPDoYWQkZtByO3utmwbsshaY0PHSe0hA4+teZekezT0HVmMmG2h/gcHt43OJuaHYoq/dGCMf51Fo404DxSRM6cI63c6dPAjfPIMMoYYzw/g21IyUwph/CKyh12g/CwXjwd0bCU5ZC21YD8JmjGEhOkZxNx9zrife78aHThuimHRkhj8dqS1PmDNo3Ho+D+7koSQYxSsuoSKn5dT7hVOXoQRrRG0exOIub+Q4h12Eh5vbQyE+BVR11B1dbVyuVzyul6v+lI1/u7hKv/Ls48fXvK48hu3QR13/VsVjDCp8ev/q1yu/6qdJRZ1uN6ljq6fpAbGLFI77U3nf5ytBvd9Wr1/zKVcZVOV/92xKmfPf1vou1LlR5jU6CX/Vq76/Son9H4VvaSmqey4+mjqw6r3uOXqM7tLuer/qz57dbzqfed4teaYS7mql6vRAyapwr3u9o9Xl6opAyLUtJ0u5Tq2QT1+Z381ef2/3W19+ZqK7jVJrWmK86OpD6vohTVtGpvq6urWH1jbMhUbFK9W291vHcWTVb/Ry9RBpZRSB9Wy0f3U5NJ6pZRSpyrmqYgB09T2U83qH12t4u8frqZtPqiaH65dGa9Cxy9TB11KKVWv9swZrkKf267qT9cJmqzeq3eo7bNiVcSk1arS1ZbfrnpVadmjaps6cqyZoIImvu1uUym1f06ECn1hjzsO13Y1bVCEWlDRdO7GyWr4M++p2gallDqlDi6PV6GT3lOOVsdAKaVq1bJHg9SU8otHdsoyU0VMetvdXvOIN05R/YJ6qe73R6gpxQcvWPeCGirVgpFBqlev7qrf4wvUnuNtr7r9hVAVdH931WvQBLXsq1OtV1BK1RdPUL1GLlCVp5RSql5tfy5UReTudxc63lYT+sar1Ufdb2uXxqqgSe/9PO5KKbVnVqjqN36x2tN8AFx71MxHItRMi/vgKdtqNXlQrFpmO1MnYn6lqq9arSYMjVXzLOeO3kW0FE/VAjX8kSnqvdP3cvM0FTF0ntrfcHYTF7tfSil1avMUFTRysbqEu+XWUKkWR7f8nDRXv3GCCnp0mTpoX63i7++npllOqT0vhKrQOfsvtWchrrs2fb60kSxf/qZ0ot9DXdm/MI0Zr26Bnr3w9T7Btg92UXt4E9PjYxgaFcMTcz7B2fgfKpuWDtrfN4TYgJsBqH1zIqaggZiCBjJ0zpcA6DtXsdLen/joTuDdg9ixvTiw6m3260DDV5SV3Uxsymh63gJ430zPx6Lp3c7ddu3HZex2VLMy4wmGRsUwMmkxu0/+yMHKI+4T2t3HoMGd3D/faaK37yG+OXoNh6idEePt7h99evjR8Qc7jkYADe0m0PWf3IUuHToYMJw7a+htxDzAr9mSjxPr7iqMA/6EXwcAA+ZwM1gtVJ1eSmywUz4tnuQSAwnPx+HfbDanbn0ipsAAAgIDCDCPo+jI6RINHBZyJo8jMSmRaRtt6MedOE6XdtDgJ6d7D5XuRMeAZgDQ2b/Vir2qiMwJ4xiXkEhWuRPtuI3a0/FcdAzawkn5BiuBI0/Pyp1hiM5j194v2bs+Af21ZHI+beMOLy9/Ujfs5cu9u5jfy8qUacW0dbdRyItb2FvxJZue86X4b5mUt3H5UrvNiFEDMODX3RfHdw73WLbT0Lx0nCcBdJw/6bTroJ23xNfxnhD3zONpNRasDWbCg90Hta5RhPjZsHx6ZplRP1BA4pM52IMzSB3QvLJO+bRg9zMQGIBpVP6ZZ6eFeOy7rNjvCSG8s/tUn0Hh+NdZsR5qHunF79d11eD+R7s9huw1K3m676Usmgrx6yHLl78qPtx26wlqjwF+Z44eO1pHx1t90IBufy3kg4G72Px+CdNjShi+8u/cxu/pM/E1lj/a6fwmd579tsujeWwZqqMDWodOwBE2vlFGrUNnYlDZz+fpjf/k9Q8eZ8mfWv/gNTyUwjsLQs/fu+L66rxz2wOnWm3xKmo4/YORmGf/QnlKPCM2GNBu8ifupSQCvc6vol3gWMuOoQfNJ+/2LGbOLMb8SgzGpjZ8huWxOdjpvmav9vieXrc7VEjWyzZiNqwg5nZgRybBr54Za/8nMwifkMmY2EIMmi+BKdkkdHWX6YBfbB4rnmjjslBD66f87Egpxd+GkBpy8Q9Vw91RRPXKocBqg77+Fz3vPJoP5mEh3BZvoeJkTJuWIpsqYgyNwjx3CtYqCA9ue5fnMUSR8Uw5iRNHYPHR0IxRzE8PP+/ZvfRnAJzHfcmYn0rxtCzyQ1eQ0ff0+rVGyLMlbJrkfvLbawZ8Trffxnguqg3363owGI0YnA4caATe4wfo7PnBiTGo1YVqIX5VZKbs18S7B8OH/p7N83Mpq/4e3fU9Bz/OJ3v9/zFkaC9oOEzJrMXsvimI2CkpxP7hEAe++T2Dhj7AwaULKKl2f5PRsT2fseNWc/BCH8bazRh8O+Hr2wnDTaDvf5ul1cEstO6juubMa+f0ruxevo5Kghjy8AnWvbyeyh+AhhNUri5hf9OEU5eBQ7h752KyPz6CDuiHy8gYk05JG2bDOmq/59jRo+4ZjEtJHC6Lk/Il5fjnbuLdNWtZu3QGcfe2uOmriQFzP3/sO97DdtLdjrXcCuYQ/E9/sHr3Jmq0mfBn83isfgFpr1Wd+ZZgBwM+nY0YOxsx3u5z5sNe19ExYGgKwX7Izk/NerW/U0DVIyvYtG4ta1cuIiP69OydxoMDAqktLcL6A4CO7a00kt+8pO/XXVRVcTF6RMzZyarTQlZsIgVNs0L6t6WUV7TDz795Uuik4s1M0maXYms2K2dblciY6aXusWt0UlFuwd7V/+zZxB35pKXnU/7dmWP65/mMic/BcsQ9knWWcqwne+Lf7D8rl0W3ULDKQMbGd1m7Zi0rchPOnhG7mO4hmL2tlO9qGoNDpVhsfoT0PVPZd0AM4cEJzHnOj/Lnsihtdj3aLT7uZ6CzER+fZs9dC/EYzWaMX1sob5pdrdtWTpWPGfP/O1P9gverTS58v9riQveL+8MJabRQ3PSNS+eBIoo/9ydkgOwnE78tkpT9qmj0TFlI7oN1LEr4EwGBf+LR+f+i58yFpD2ogfcd9Pzj97weNxiTOYF1t44n8SENw9AZLHlSY13iMAJ6DWTkK3UMSRl+wQ39ZztB2ZubMTz+FNHn/Ie2y6OpxOolrNz+f/SbtpA041ZSHgkmIOQJ8g5q+HppaN7AXaNZuCiS+lcTMPUKpn/CerRRTzHkjtavtufo8fTZn0n/oMFMfPtI6xWuiIaxq05RfAAms/vPM4SNSiR/Rx3ujf6RhI3Np8JlYWZUGGHhkWRtdScExrHZZHS3kjwsjLDQEeTXRZE3NYTzUjrNn6S5T2NYl0bWjlb+7MM9j5E6zEHBk4kkT0mjSAshxLWa5LlWAAxd/XD8PZIAs8n9JyEixpD2RgVOwGfUHOaH2ckZFUxYaCRpW32JeqSt2YqRkPBAquaGERYeRlhE2plvNOpWij/yJSb6nLYMZhLG+1MxNxqTyUTohGKIf4UZjzQfASe2T7dTvqMCe7PJVb/oJKIai0gMNWEKjiDzQCDZuQnNJ4I59rUVyzYLVc2+cKj1eozUYAcFj/fHZDYR+6qDqNw57lnFK+FtxM9QTnKwe1xNwWGMSMii/FvQd2QRGR7GlBI7trcmEBYeRuSEQnfS0sFM6stxOF+NJSw0jMi/lWNMz/t59rI5nyEzyH7Exrxpha0nPC3Ew71J5E0yUDw+jLDQMOJXQsJLqQSenhS72P3CSekU958S6f9cOc6vCxhjNmEKz8LaeOacC90vDuQzwmzCFDyOghon5enu35XEt84sOF/ofqGZyXgpDn35OILNJiKeteD/fDYJd7Z+S4T4NfmdUkpdq8ZramowGuV/Or91evVWtjnvY5CpE1rDCSrfzGTi9mDWrB5Nl+sUg91up3v37pffwKFCxj3jIGldBmYNQMe+KpkRO8LZvDTmxu7HOVdjBfmjctBeWkvS3e5D+oECxo23kWDJI/warVQ5y9IYszWctbnh5yecvxJ1JcnE74o6c42NdZSmR1PUfSVr/3ql03DXN57fwv0S4nqoqam5ss+XZmRPmbgOfuQfS/5KdvKPnPJqz233DibrpeuXkF0VPoGE3JlDztgx7hk+L8DbSMKkcM9KyAC8uhA4wEDB1DFYfk7ANPxSMrh2W4fqKN9QhXl89q/6A/5/uofgv6GAcbGF7uVgL+DWP5N03myTp8fz27hfQvzSyEyZ+E244pkyIYQQ4gKu5kyZ7CkTQgghhPAAkpQJIYQQQngAScqEEEIIITyAJGVCCCGEEB5AkjIhhBBCCA8gSZkQQgghhAeQpEwIIYQQwgNIUiaEEEII4QEkKRNCCCGE8ACSlAkhhBBCeABJyoQQQgghPIAkZUIIIYQQHkCSMiGEEEIIDyBJmfAoenUZeX+L46H7g+nhP5CHRqSQ/XY1zmbnOPcUkhI1mIDuwQSEJpDx1tnll21XDiPCwwgLMREQnkNF44VOqqM4yURwSil1V6NPIYQQookkZcJjOPfkMzKugNoef2HhhvfYa93A8hQTzpV/5dEXdrkTr4Z95E1dhz7q72yp2MqWnCEY/vMv6huuQgDBGbxbvoUtC2MwXvQkH8yPZfD02EB8rkKXQgghxGmSlAnP0FDN6y9s5LaMxSycFEpvv04YDJ3oNvAxclbOoNvHueTt0aFRR9fb06XHXfjepOFrGk3mlCF08b7WATopTY8kLDyM2NQsCnedPTdnmWZixLR8slISGTMskjHTS7E3zbTZ3xhD8DTLz+dWLRxB2GwrAPrXBYwJGUPB1zoAdSXJhMXmU3HyWl+PEEIITyNJmfAM3+5i9/EHiI3sfH7ZLaHEPnyK3duqQQtm8nNB7E4bzdinF7Nu52H06xKggajcTWwp38L8kb5oFzjD2c5MxsLXWbshm8CKeRRYWo9MuyeJvEkGip/Px3qgiGlLdBJyUwnscPWvQAghhGeTpEx4ljbMeHWJns4HWxeTNrA9la/+lYcfK6Ty+mRmLWiHr9HoTtY0P/zv+gn7f39sU03j6Dlk9Cgn8fEiDM/MIe7OaxqoEEIIDyVJmfAMdwbR79bP2PjekfPLfthKyfb29BvU48wxrTO9oxPIWv13YutX8vq2G56VteinFve8ncLp0vifDjrOH05dr5CEEEJ4GEnKhGfwDiBx5nBqc54i5dWt7D/8PU7n9xzcvpqM+Cz+8VA6aQ9qcLSElKiJvPLxYZy6jqPqCw4c78htnS60oOgZDLf7Qo3VvU9Mt1N16FizUh3bG5kU/JTAyjfj0JekUXDAsxNMIYQQ18Y13x4tRFsZHkzlnaI/sujVZaQsPcyxn37PbT3uY0j8a7zz5x4YAO4YQvKT/yJv4V/p/9T34NuDQfGzSDZdhQB25TBiZjlO3YnDAZMjymnfLoQZG2YQojkpTR9D/uc6p36w86PXBMLK2uM7PI+1TwW2fF2PpJK6LY3JocF09B9MVOfbfi5zfppP2npfUtfE4OcD2SkVjJuaQ+CaGZgNV+GahBBC/GL8TimlrlXjNTU1GI0X/+MCQlwvdrud7t273+gwhBBC/MrU1NRctc8XWb4UQgghhPAAkpQJIYQQQngAScqEEEIIITyAJGVCCCGEEB5AkjIhhBBCCA8gSZkQQgghhAeQpEwIIYQQwgNIUiaEEEII4QEkKRNCCCGE8ACSlAkhhBBCeABJyoQQQgghPIAkZUIIIYQQHkCSMiGEEEIIDyBJmRBCCCGEB5CkTAghhBDCA0hS9ptzhKUxQdx15/kv0wv7bnRwl6R2+2rW7T9xo8O4uj7PITIih4rGGx2IEEKI6837RgcgrrfOTFi7j/hGHQ4X8ei4QyRvmU4/bw3N60bHdmlqd75NyR2DiO19840ORQghhLhikpT9FnmD5q013X0NNA3NG9g5C9OcOkI7HWbrqWjeWjsa/a15TH/jEw66OtKlTxBd/v0Jt037kKyHjrB0TBybb3uA9seOUH9M57aHnyJ3Wii+gGN7PulzNnPQ1R7fB+LInTeabp/NwvTCEfp1+Yna406cuoE+T2aQ9WgPNICju3hl1mLW7T5Mffs76POn8WRNGUIXDSpzY0ip/iNdavdSGxRJt63vstt5Ap04TEs0IvI+JGvglQ1LebqJAmIwfluOvXsUIY0VlFf4krQ8jyhfC5kDCvBbtZaEroBeTnL/IsylK4i7vY7y9FhyyGBdbjg+JyvIfzwN+5PryBvmA99ZyJ+dT7nNia5r+A3LYM4zIfgAUIdl7hSySqqgs5mocANgaIpIx1aSQ9ZSC/aToBlDSJieQczd2pVdqBBCCI8ky5fibEd/pEt6EXuLE7jt43lMXAXjCt/ny30lvPlEZ5yO5if/H7rvaJasLeKD0hn03JPDop068D2b39iIIWUDO3cV8fzQrnQ8PQunG+g3s4B3Sov5eN1TGNakk152AhqqeeWpLHb3fJp3Pt3Fl+XZDPmugCdz96E3Va09ZmBC0Yd8PCeFJdbtLHm0M32eKWLvvitPyE4zBiex6MUo2KcTMut1Uv33YPlcb6WWD+HPZxNek8PMDVVYF2ZhCcxmxjB32qU3agROXMGmzVvY8v4MjFtzWPZ503B8NI9p24xkbNzLlg15RGkOfh7irwtIe9VJzGtb2LJ1CyvH6hQ+nS9Lm0II8SslSZk4S/v7hhAbcDNwgm3vfUK3J58m2s+9POj7YDRD/tj8bB/6PBzknte5KYB+98HBwyeATvR7qCv7F6Yx49Ut0LMXvk1zsu27BRF6V9NMzy1BJMffwe5Nn6BXbWazK4K0vwbhqwGGHsSm/5nbPtjMPxrcp/d8ZDT9fK/l1bdD62AAzYCmaWhoaB1A11tLygCDmdS5cThfHkPyV+FkP2v+eb5L84KqNWmMm5BI4pQC/v927j0sqmpx4/iXUAclBy+AdkQzST2SUpwDSWqSqBRejjdKk8xbmqbmNU3Je+YlTT2VtwrN0m5omWaJl8RL0ZFfmHowUUxxTAVSGcVmFNy/PwYMDYESYuq8n+fxeZzZe6+19tozs99Zaw3xGemkn3VsS9qfBE3DCKsJYML3Pl/yTtGyOx5LoxDCajkee7YKwy8jnvijJXvWIiLiHBTKpOS4Ajk2AO5+OprPXu3FPbbdTIwYzBspBR9it0ExIs+fwyUr1nKVqXDJivXaSdmJfWU0sVUHs+yNZSxbPIOIemXZSBERcVYKZXITt9Oq/f0cWT6fdSmOhJH+9Qd88X0xDs0+xrrpi/jKPZDuo4fT/a6jHDjsKMP232188PVPANgPrePF5T/Qql0LTH7hhLt/ztylCaTbAeshPpjzEWntw/nnTVY+epjKk3bqlCPUZd/yCRfBC6+qJ0hMsABgPZCEJX+d5+KY9kIcwXM+4KX74oh6MZaM3E12+2VMZrNj3Zw1hZTTvxzm18QPEmKJPQ1gJ2V/yrXpS5/gYHwOxhF70vE448tYkjyDCa5TmucpIiJlRaFMbsrcfhJLesHb/R7GP/Bh+rz5I+ZqxTiw3B3c8/efWBb5MEHB/fig2lMMfDB3ytLLxIk3n+bBwOYEDVyHW99/M/2R26FcQ4YumkSz/86nXWBz/EOj+KLmYJaPDeRmy9rveewp/vltFC0CH2bQRydL6rQL5urHE2P/hfXNLgSFdmFagv3alCw5FmImTiOl4wxGNPUhZOwMOqZMZcI7KYCJsEEj8Nk2ht5DxzDmlRT8wn1JnDWMrhVmRQAAIABJREFUmJNgavs8k1tamN05iNbdxrD+kte16UsaD2buEDMxT7WmdWhrnlwJ/V4eQYDW+YuI/CW5GIZhlFbhycnJ+Pj4lFbx8mezczoPvtmQtW8/RqkuDSuAxWKhQYMGf3CtIiLyV5ecnFxi9xeNlImIiIg4Af2dMvnjPDiRnQ+WdSNERESck0bKRERERJyAQpmIiIiIE1AoExEREXECCmUiIiIiTkChTERERMQJKJSJiIiIOAGFMhEREREnoFAmIiIi4gQUykREREScgEKZiIiIiBNQKBMRERFxAgplIiIiIk5AoUz+3HZO58EnPiS9rNshIiJyixTKpGindjO3fwRBfoE0DIyg7/QvOGJ3bDqx/V0++PbiLRR+kW/f+5CvnCZV2Yl/sTUN/ZoTtcP+B9RnJXHFGHqEBhEUFES7ftNYf9T+y7Z3xtAjrDnNQ1rT7skoYg5e36aUpT1oPTP+V6XGTWhOjzctf2BbwX5wFVE9W9M8OIjmHQYye/Mv9duPr2f2gHY0DwoiKKQLw5bGY83beC6e6NFdaB0cRFDz1vQYvpj4jGI26eR6xnQIwt/fnzGb82+wk7JhGr3DmxMUHETzDr2Zti6FYl3Rw4vp4u+Pf0DevyDavZzo2JZjIe6VgXQJCSIouDntekax6oC18PKuNSmFVUNb4x/g/+trdjyW2YO70DqkOc1DuzBsYRwZOcUo8osxBHVfTEreEydX0TtoIOvPxTMtLIig4CCCgvxp6OePf7DjcfOJcY59M+JZPLQLzYMLuCYiUiYUyqQIF/liThRfVH2K93bvZs8nI2nm+iNpuZ/eJ3Z+xLpvM2+h/Ay++vBDvjpVIo29dTlJxO02ERLiQfy2xOLdxAsoY3G/drTruYDEIm6s1s3TGBpjot/qPeyJ/5xxdeKZNiUGC2DfMZsxq030W7mb3XFbWdkHop9bQGK+Rtmz/ojgWHRbscezYFQ09p5vsy1+D5/PCiDpxSiijwM5KUSPnUVS07l8vmcPu97siH15FAt2O9puTU4k/b5xfLB7D3s2LyPsQjTTlicW2R770RjGPLUY+s6gXz3T9RtzLCQlm4l4fRt74vewbqwv8S/OZv254pyoFXvTcWxL3Me+xH3sS9zDxucCHNvSk0gkjBnrHX0wo2kKs6fH/BKKbuZSEtFDBxJTcxwzOnndsDGF6PFTSfrnDDbG7Wb3hhkEfDeNCZ8UN5kWwDWYSbF72BO/hz1vROJbM4Jlux2Pd08PATKImTKa2JojWLd7D3s+GIHX+ihm/yFfRETkZhTKpEj2S1cw3/V37q5qwuzTnAET+tGMdQwKfohB753k/16JJCjwYSZtB7jIf995ga4hD+Ef2In2T09nUPjDTNoJcJI3ejxMz5Fjad/8YYbNmcCDgX14dd8x3njyIYKCx7LuHGDZzdxnInkw+GEeDImg70vbOJGd2xjLNseo3X0P8WBYP8at/QFbSZ7s/ljiCKFfnxBMX8X+EoBy4ohq3oPoo3mdEsuwoN6sOp37OCOOBUN70KV7D7q07U1M1cGsXD2CANfCqzO3ncG6dyYRVhNw9SS4uR+ctpCeAymJSVibhDm2AZ4hYQRkxBN3FFJWDKRdWGsGvJeCZe1oWoe1pnVYO6btyFe4ZT1RT7ajeXBzekxcj6UYIy+/t63sjSXWNYzIcB9MOWBu3I+I+5KI22EBV18GL1nHq339MAOm+iEE3JmO5eQFR7lNBzOuVzCerkC2HXu2GR+fG4PLr9nT7fg9t5K5nX0w3bjR1ZeOo0bQsZ4JsGOz2sHTF59K+faxxhIV6k/z0eu5Lv5kWbGbvahcUKU1wxgxKgI/M5BzGfslO153+pC/tUlLexAU1IUFB/LXlQ4tZ/D2C2F4lbuhzEtJJB6uTUion+M8KvkR1syLxB3f/r4vBcWRsZ3Yb+4m4qkQR7/XDGHSmo3MaPmrnhSRP5BCmRThdh4ZPpza656mTe/pvLY2gRN2wKsTS+K3s+TxWvxz1Cr2JGxi2kNg/WIWg96B3tEb2JewjhV9amG9bmryImmuoSzZtolXx77EzoQVDPOvy4CV29kTP4dOlQ/x2ohFWNvPYEv8JnZunMsjpxcy7q1jkH2I14bN5tt/TGJjwnZ2fjyJZq4/leiNK2lbHPamIQTcF0JAdhxxB4o+BiDxjdms9xzB+x+8z8cb5hKcuJh39xbnSBOeVfNuhFbivkzE3CwYP1fwqevjCDsnHWeYsS2WRLsdcsC3zzI2xm7ltcd88Ok6j62xW9kau5FJLfPKvUz6JR9GLt/I7s9fwvebWSyOu9WeunlbractWM1emE+vondgc6J2gFdVMxZL7sWv6ok5N6DaD8cSZwkgpKnnL0UfX0Xv5v74B/cmtsE4Xnrcp8jWmJtG0i/Us9B94qa0JijAn3avpBPx8giC82cOkw8BLcN4KND3ugBmt1ohO5HFg7vQOrQ1XQbMvm6alpwkFnQLwj+gOaMPhjBjfBjmfMd7NwompFUIfvmbVjOEfr2Cr9vvl3b44lsjhbjNSY7pQ2sSsV+lYC+9SAanLViyvfCqmr8dCmQiZU2hTIpk8nuMhbFrWD7IH3bOp2fYWD4ocL7mIl9+uou7+46kk+/tAHg90IlH/p5/H0+adXuE2jf7/E/eyueHTvLVkjF07RhB+x5jWPk9nDj8PdbkrXye2ZqhT/s7Rhvc69KpUyAeJXWiOUnE7cgkoHkAJlMAIQE24rYVPY0GYKpkgstWx23UbsWOGVOBd+CbySD+5YHMPtaRGaNCMAHmDpOZ+4iV6Kfa0a7bQBbttUMlP/zqFae8Cng1CHCMglQNILjBZSxnLvyWBv2mtpI7kmmqGcGM1SsZ2bTgC2w/HEPUs+vxGjWDyDvzbbgzkrd372Pf7mV0PDqVoUuTSqSlIVO2sidxHxvHexHzbBSx+acvTX5ETJnLjMf9rh9p8w0jokkAHed9zNbPP2BErTimTVnFtRVyrn6MWLOHfXt2M69JPKMnxJB/9Z5nyxHMnTPi2ghnkVz9GDxrBD7fjKFLWDt6TF2PhQr4+fn9egSwWIpxVHbRu4jIH+/GgXSRm7id2g90YugDj/CPyY8xbnUC3ScGlk5VXu2Y9vFYmt346kxaBIBb6dQKR+OIPXqBlAktCJoI2O1Ya8WRNCoAvyIO9es7jrABUfToHo3Z5EXA8Bn0K1Z4Ai4lsWr8GFaVi+TVNyPxy5tic/UkZNSrhIwCyCB2bHfiO8wlpFIhZZW2m7TV7OOD2ZpOOiYCGvkCdr4+Z8Un8JeJvYwdsxn6YiIBL6xkXMubjHBVDeBfbe9m8eeJWJ72o+jxsuIw4RPakeCZo4lPgrDmRezdqCODG+U98iQkPBjzqBRScsAn/3S0yZPgDiF4PxlH4qWI66dGf2sLG0cyIzoSAPvBxfQedA8RL/kWfVwFExWygRwgb/rX1VT0oJePDz7lEkk/B+SFR7tdo2UiZUwjZVK47GOs7B3JoDcTOGG1Yz+1n29TMjFXc9xUPUzlSTt1yjFClH07rdrfz5Hl81mX4ph6Sf/6A774vrAKymMyXeDEjxcd394btCbcfSOvLUwg3Q5YD7Hy2X5M2n7Rsc1jK3OX7iM9G8g6xrp1CaSV0Kla4uKwNJ3Etj25C6Q/H0fwyThikwG88Kp6gsQEx5iI9UASlnyjDZa1i0lq+zYbP3if91e+yrhOvsUb5Tgdx+y+Y4hrOIn35+ULZNexk/TmaGanhDFpSMB15ZqKWLNWGPvJJBL/L4mM4s6SFdbW+8IIyYkjZnNe/6wiZq8fIS19HO1/ZxhPLrQSueTtGwJZButH92DYe7lTd5eS+HTbEbwa+VH0qrJCzm3vAno8OZu4vKnfuFjiL92DX/6cY08iZsoYot5Lum6i0LJuDANnxmKxAzkZxG1OxOofwD2ukPLOQHpMXE/KJSDHSmJsHJZ6ftf1RcaOBYwZu4DY0/x2p2OZ9lwMXkMmEVGckTZfX2qfjCfuqB2wY/kqnhO1fPEt6sXn+RBhgUeIWZ77K8+MOKZ1b/cH/eJYRG5GI2VSuHJ16Ty8E0cWzqLrwmNYqc497Z9hTp+6ANzz2FP8c2QULQLhn6OjWfL4JJacncXEfg8zMctE7XuDqF2tsApq0XlQOF9O7kDQlHr0jo5m6OJJ2KbPol3TU9jd7uCfXZ9hWovboVxDhr46DtvkabQLyACvejS7t3rB63R+MwtxO1LwC3+Ia5Gh5sOEBSwg5ssURjTy44mx/2L0i10IWuJDSPfg6xZsm+v5kj60Hf5vmjABFar68kC3cUx6KqDQ9lk2R7NqvwXT8WG0Xpn3rA+RSz5mxH2APYX1M6NYnBrMjKUjCL6hMN+QMHzGR9H6SwATIS/kX1dWGDvxr/dm2L5I3l7nR+Ers4rT1mDGvRxJ1PTeNJ9ihap+/OuFGfS7E8hJJObNWCxWM9N6xjIt98gKTSfx+cKOhA2KIHHmGMJfSedyBS/82o5k7vCAokPtgQV0ecoxrWi3WmFsEEGmCgQM/4Bljz3BiOazWNCrBWMugblWMBFzXro+6NgtJO6IZfuFEEbmm8L0aRVJyDez6R0ShRUzPk0jeHV6BJ6AZ6fBdJw1m4Gh07BSAa8m/2LGnH7kz3ppB+OJ+9KOz5P5pjBz4pkWPoz1VrBfsmJnGEHroELLGWybE4YJsP7fYsZMjsXcdxlzuxVzjPDOSCYNSSLq6RYsvgAVagXTf2IkRY+xeRIx/SUsUxbQqfkYLpt8CO45Qwv9RcqYi2EYRmkVnpycjI9PyUxAiNwKi8VCgwYNSqfwnEQWdJuN6eX3GVzf8ZT9wGJ6P5VCv7i5hDnjfS4nhcWP9SC+88e83UvvURGR3ys5ObnE7i8aKRO5Va61CWhpZvHzPYi7FsBM+A4fR4gzBjKArCSSzoUQ2UmBTETEWWikTP4nlOpImYiI/M8qyZEyLfQXERERcQIKZSIiIiJOQKFMRERExAkolImIiIg4AYUyERERESegUCYiIiLiBBTKRERERJyAQpmIiIiIE1AoExEREXECCmUiIiIiTkChTERERMQJKJSJiIiIOAGFMvlj2b9g0H1j+cJe1g0RERFxLgpl/yuOvUtXvwhm7CkgDaW8S8/7OjFjTzHKSdnGG+sO8cdkqot8+96HfJX+h1QGGByOS+PRZ47S8ImjtJxwhrWpRrGOWzsrhUc3Xvmd9eawenoKQ74uTl0iIvJXpVD2vyT7GCujFvJV1vXPvRG1mK8u2IpXxuEveHXj939QKMvgqw8/5KtTf0hlcOwnRr1zhXZj63Lo3bt4q0U2s+dlcCCntCvOwfpzadchIiLOrlxZN0D+QOX8aXXXVia9EspnEwMxAUfemsayrEBa3Xnsl/0su5n70iLWfZsBpsrc/fAzTBtbjy+e6MOy/17Eat9Ni8D51H7833w22h/r19FMfOkDvjwB3nffyz/dD3HAfw6fjW4I9mOsmzOLV9ftJ9N0B41b1SMzX8i52bFr732HNs/vIu3cRXjyIT5wu58XPp9Dp6xtzJ28iA/+LwM373o0uwe2pT/Cxncfw+sWu+dw/CVS761Gz7q3QQ7Uf9iD1mt/YsMxaOxbjAJOW5kw4SKfpebg0diDV4ZVJ9D9Cqunn+DjgNp81KG8Y7+UdNrOM5i8sDppCyzMPnKV8+cN7MuOkbACKF+RcTNr0rUypH6dzoSPLpFquwqVK9KzrzeD/u74LpWWmMH4VVkcvgJccaH+/VWYHGmmTvlb7AgRESkTGin7X+LqSeeJI7lnyyzmfn0Re1I0Y9+A3jP6c48pd5/sQ7w2YhHW9jPYEr+JnRvn8sjphYx7Cwa8v509L4dibjWWXQnb+Wy0P1g+ZPjIrXiPjmbP3k18tuARzNaM3MLsfDVnOHNPhbJw2272xK1gTEM76XmhrJBjTW1eZGfCCob512XAyu3siZ9Dp8qHeG3YbL79xyQ2Jmxn58eTaOb6UwmN2hmkns7Go7Ir9l0/0vCJk6y9UA6zezYn0oo3rZiaVYER0+/kuzdr0dOWyfh1NqA83cLdSd2cmTviZrD1i4u4hXrQorwrXZ+7k2+W1mJkXRfaD6zLN0vv4pvXHIGMk+cY/dFV+k66kx2L7mJzf1fWzE9nqw3IsfPeO1aqPFqbHQvvZMfCO+jbsDxuCmQiIn9aGin7X1PzEV4Yu4uuUVGccP8OBqxgqJ+duXnbk7fy+aGT2JeMoeuS3OfsYK3wPVbqYr6huPQtX3Dggf4seagWJgCfUDq3WMRXANn7+eKL2+ke/Rj3mAFu557Hwrln3raijy1I8lY+z2xN1NP+eJUDytWlU6dA5i4tob7JZW7qxQYfqFM5h+TfcFwdXze8XQFXE13vr8D8/9hIww3vAA+6rD7F6n3VeekuK6sTK/D4XFOR5aUlZrHnXA7MteC4FFfB1ZXUn4Ba5Wh8lwurPzrN1BQT9etUJCigEt6/64xFRMQZKJT9D/JqP5KoLT0Ze+op1vavCxy6YYd2TPt4LM2c9NXhViqlulDHuxyZP+VgL1+R+nWBnCtYs8pR29vl1op2daPfw+XpuOUCCQ2sHA6oyqIqxTnQwHR3Fd6K8vhVGAZXWg+ry/qULBJ+uMLhg+fov+Isg170oWfNW2uuiIiUDU1f/k+qziPzN7Hv/Se4+8bg1aA14e4beW1hAul2wHqIlc/2Y9L2i47tbpUxpf1EWjaQDV5tHqHx128xd/tJ7IDdso1PduWuzC/XhEceucgHCz/kv1Yg+yL//fBz/nvZsbnQYwEoj8l0gRM/XoTs3LZ5bGXu0n2kZwNZx1i3LoG0EuqV+s0q4f1dJqtTDcDg8JZzbHWvRIe6xTv+zA820nIAm521/7lMnQZu10auvFtUocWRnxiy0aBb+9spepwMvP0r0eCIleUpVwGwfp9B/3mZpALYbKx+P5NU79tp16Yqw3tVpUWFKxw4o19wioj8WTnpWIiUmXINGbp4Erbps2jX9BR2tzv4Z9dnmNbidsf2Bx5j2NooHg9eidtDk/hs7mPMmX+RF1/qR9AIOx533U8zs2duYSaajV3ImJdmMbzlQtLc76Dxg/Xwcs3d7FPYsQC16DwonC8ndyBoSj16R0cz9NVx2CZPo11ABnjVo9m91QsYRfqd6lZnUWQaE2b9wCwrVKnlzvCRnjR2LfpQgBoVL7Ng4nHHQv9GHrzSKd+Ynrs7jwems+G0mcfr3nhkeVo3M7F6xTGaruCXhf51qvF6/xwmzD/OvTYDN7OJnr2qUgfArTwNKmYy+4XjnMkBrkKd+z15pfEtjuqJiEiZcTEMo9S+WicnJ+Pj41NaxYsUm8VioUGDBmXXgBw7C8f9SOqjdzKvqQaoRUT+KpKTk0vs/qKRMpFSdnithf6brmC6uxpvBSqQiYhIwRTKREpZ/a4+7Oha1q0QERFnp6/tIiIiIk5AoUxERETECSiUiYiIiDgBhTIRERERJ6BQJiIiIuIEFMpEREREnIBCmYiIiIgTUCgTERERcQIKZSIiIiJOQKFMRERExAkolImIiIg4AYUyERERESegUCYiIiLiBBTKRERERJyAQpmIiIiIE1AoExEREXECpRrKXF1dS7N4ERERkTJjs9lKNOu4GIZhlFhpN8jMzCQjI4OcnJzSqkJERESkTLi6uuLp6YmHh0eJlFeqoUxEREREikdrykREREScgEKZiIiIiBNQKBMRERFxAgplIiIiIk5AoUxERETECSiUiYiIiDgBhTIRERERJ6BQJiIiIuIEFMpEREREnIBCmYiIiIgTUCgTERERcQIKZSIiIiJOQKFMRERExAkolImIiIg4AYUyERERESdQrrQrsNlsnD17lkuXLgFw9erV0q5SREREpNS4uLjg7u5OtWrVcHNzK7lyDcMwSqy0G9hsNk6cOMEdd9yBu7s7Li4upVWViIiIyB/CMAyysrI4deoUtWvXLrFgVqqh7Mcff8TDwwN3d/fSqkJERESkTGRlZZGZmcnf/va3EimvVNeUZWVlUalSpdKsQkRERKRMVKpUiaysrBIrr1RDmYuLi6YsRURE5C/JxcWFkpxwLNVQpkX9IiIiIsWjP4khIiIi4gQUykREREScgEKZiIiIiBNQKBMRERFxAgplIiIiIk5AoUxERETECSiUiYiIiDgBhTIRERERJ6BQJiIiIuIEFMpEREREnIBCmYiIiIgTUCgTERERcQIKZSIiIiJOwMlCWQarevjh7VXwv9r9N2Av6yYmvEyLOwIY/FlZN0RERKQwFhZ1KeB+6tOTRT+Uddt+g+xveP4ffjQeu6OYB/wJssRNlCvrBlyvMv6d+vJMI4B0/vPhBhJMTenXyQ83wNTIF1MZt1BERORPxbsRkY8F45H3uFwt7vco7IA/uz9vlnCyUGaiyePP0QQg+yDzt29gf5WWPDO5L3XKumkiIiJ/RtVb0i9qOE2c7I5fev68WcLJpi+LsGks9e9oyZRvfnnqsyEBeDd7mYRsIHsHIxv60bjLcAaHt6S+TwD1m/Vl5qaM3L0vsOoJP7zv78vgPh1oXNeP2vd0oO+Cb8jMV03qpoWO4+sG0LhlTwYv2EFa9h94niIiIqUt8yCrxvelxT0B1K7blBaPTiT6mwu5G3Pvl80GMbJ/BxrXDWPKe47lOz3fybunWljUwY/6fdZcu4cmL+hGbZ9uLDoMYCf505fp26optX0CaNzKUZa3T0+iT/DLPbvHWAaHN6X2PWPZYgfO7mXRsz0JbBhA7YYt6TZqDYez8rXbfpRVY3s62t0wjG5j15D8G+cjU7fm3ud9/Kj/j270nbH5N5dRGv5coayY0hJToNNEot+dTr8aScwf8hyrfsy3w4m9HPfuyYIVS5jV3sSu2c/y/GeOF2LmprF07bOU/TW6MeXf0xnf2sTO2cPps/Bg2ZyMiIjIrfjpG6Jnv8zMGS8zc9ZytvwIZB9lUZ+ejPwonfqPDWL8mAianI/l+e59mJmQL50c3sFOezDPTH+Obu060L6+nZ2b4hwh7IfNbNgLmbs2s+UswFG2bDoITcJoUx/SPp1Iz6eXs6dKGKOmPMeoNib2xR39VfPS4uJJa9KPqdN7EuR6kPmRfZnyqZUmPZ9l6vOR1D8Rz3/O5tt/9XSefyeDJiPnsOSFtpjTjpKa+atibypz00S69l7KTrcQ+j3/HM88bGb/4uF0fWYDab+vh0vMX3Iw07vrWBYMaokJeLDiXtZ0XsOuBDuR/8rdoX5PZr/U0zGU+4CdXeuGs2dXErSvxapXN3Cm8dNsfXM4DcoB/wqhSlob+q5azc7h03mw7E5LRETkt0vby6oFex3/L+fDM2368uDBJSyKr0D711ewvKunY1uv+3BrNZzo1zbwzIowx3P1e7JkxQsE5qWFh+sxf/lmtpztRtCmzex3q4yH7Rs2bLlAt6A4NuyHJs+3pQEWFi3bQGr9vmx8/zkCTQA9aVO9J81fvL553l0nsnpOW0yAfetY3toLbV5ZwfLHc9vVsxH2fwxic94B5QBsZGbaqdF1EMt7Vf4NnWFh1atrSG30NFvfH04TE0Bf2tfqRusZ/+atvR0Yf99vKK6E/SVHytzcTb8s4jN74eFqx2a7fG27yWTGlPcCczVTwwMy7XbIPknqCbAfWEHruwOoXTeA2nVbMmjdBUizkGr9o89ERETkFjV6mq2nkkhLTyLtVCxTAuHMDxYyXX0JCvL8ZT+PYAL9IPO4hdTcJTsmdy/M+YZvmrQPoYHtGzZs38uGDXvxaDeW8Q/Brk2x7N+0mf00okP7etfupx5N7ssNZA5upl8vsXerZr52z85MtZDpWo+gwHztcjWR/zDvxyayoJcPya+Opd39LQl8Yik7z1I82Uc5/AN4NwnIDWQODYICqEE6yUfLdg7zzxXKTCZM2Mk8n9dpF7DZSrD8crWoUxs8Qp5l45fr2Z3374s17Nr5MhHVSrAuERGRMlKjtg8eOSns2ZPxy5OZ8SQkgcedPtS52Txa4w60r2dn1xtzWLO3Mm07daDbv5pC3GrGfbAX7utAh7u4dj/N3L+X/LOhtqzCRzc8/uaDR85R9iTka1eOHXv+rGSqRYfJq0k4tIOtr7fFbetCZq789bRogcr5UP8uSNufyP58ZSbvSeQMXjSoV7a/y/xzTV/6N+XBamvYMPdFAsu1pcr+1czcZKfkfk7hQ8TAtkQ/vYQRc61EBvvAT3v5bOUGzjy8kM9mtnTan9GKiIgUl6n1IJ4J3syUsX3ou78jQdWt7F8Xw5qz9Rg5tAMeXC74wHKN6NCuHvPn7WX/37oxvoUJj6wOtJg4ls8OQOD0trm3ZMf9dNHTy+nTw0r/fzXC48dviF5+EDs3nx80PdSX/vdtZubEPvQ92o02f7vM/k9XEZNG7p/0sJMwqyd9PvUisl9bGmTbARMVPSoU88zrETmsG9H9l9K3RwaRrevByR2seucgHu2m078Mpy7hzxbKqnVg6usp2Cat5vn+sdQICKFJI0jNKvrQ4vL+1xzW8m8mv7qGmesywKMe/g8/y4LnWvKX/rMuIiLyv6NcPZ5ZsRqPWXNY/OEStmRV4M6gMGZ9MJx+gSa4WSgDmnRoS5OFSznzcFseNAGmECIeqsxnn/nS4WGfa/t5/2sOa7P/zZRXY3hl4gY86jelQ0g9kjcV0i5TI0a+vQTTiwuJXvkyW3I8ub9dMPdX28Ahxw4ERg4i8vAS1syayBk8adLrBWb29Cmk0Ot5PDydtW97MnPuGhbNWgPe9WgxeA7jx3TAu9illA4XwzCM0io8OTmZBg0alFbxIiIiImWqJLPOn2tNmYiIiMhflEKZiIiIiBNQKBMRERFxAgplIiIiIk5AoUxERETECSiUiYiIiDgBhTIRERERJ6BQJiIiIuIEFMpEREREnIBCmYiIiIgTUCgTERERcQIKZSIiIiJOQKFMRERExAkolImIiIg4AYUyERERESegUCYiIiLiBBRhSUT7AAAbCElEQVTKRERERJxAudKuIDMzs7SrEBEREfnTK/VQ5uHhUdpViIiIiJSJM2fOlFhZmr4UERERcQIKZSIiIiJOQKFMRERExAkolImIiIg4AYUyERERESegUCYiIiLiBBTKRERERJyAQpmIiIiIE1AoExEREXECCmUiIiIiTkChTERERMQJKJSJiIiIOAGFMhEREREnoFAmIiIi4gQUykREREScgEKZiIiIiBMoV9YNEBFxRqmpqbz//vu/en7s2LEArF27lnPnzvHTTz9de05E5FYolImI3ETVqlUZMGBAgdvuuece1q1bR9WqVf/gVonIX5XzTV/m/MzUZ44z9ftC9jmQRssxGRwu8PgLDOltYfX5UmpfoS6zZEIqs5IL2maQsOI4j6677Hhos7H69RM07Z1Cwyd+oOOCcxzIKl4taYkZ9B/1A/f2PUrToRam7rqMvcA9c1g9PYUntuQUr9yENNr2TqFu9xv6L+cyG6MttHzqKPf2Pcq9Qy1MiLNfX+dPF5k64Tgdoy+QeqV451FonecvseTlVEf/9P6BjrN+Ylcxr2mR/XPlMmtfT6XllIxilnmF5VOOUPfxFBo+kfvv8SPc8dQZduVQvP5xFjk2Fg4/yuhE43cXYf8unY5P/0DTp3+g6dAzbCzm6/av5NChQ6xbt44OHTrg6+tb1s0Rkb8I5wtlxWC3GTe/4dmuYiteBil5yZmsoTI9GxSwzZbFewnleDykAmCw651TLLxQmXeX+nJoaU2aW84ycq2t6DrOZzL+35eo068O3y2vx44XKpP6zhmWpN5a09O+PkNk9BW6PVOFoBteFfb/ZDAyoTyT59bju+X12Nm/ArveyOCzvJvxhYtMmJzO4WY1ielXmTrlb71O6/GfOdPAk/XRvhxa+jfa284zYe3PRRdaZP9cYe28kyywVeHdiZ60qFK8toIrPcfW49C7vhx615c1nSrgfXdF/F2L0T8lwmBXdCotnznJ8pMlWe5vl3rwZ1L9vfhm6V1881oN2rmXbXv+aHmBLCwsDD8/P0JDQ8u6SX9Z1jUDCRocg/XmexAzIIgxmwvemrK0B61nxpdS6yDx5S70XmEpcJt9WxTthq8vpO1l72b9EzehOT3eLPi8ysTxWGYP7kLrkOY0D+3CsIVxZOTd53MyiHtlIO1Cgghq3poeY1eRlNfpl1KImdKbdiHNaR7Smh5jo0k8l1eonZQN0+gd3pyg4Oa0e3Ia6w+X/VdpJ52+vEranjQefe0i+7JcadOtBq90cMP0fTod/32RtJ+vknoJnnj6AgDeITVZ/2gOE0ams/WKwRmbQcKYH1joCiafKrw7sSpsOEHbBBMjvbLZlXqF1CsmBj1bg551XYCrJKxLY+o2O7YcsLu60qKjJ5PbuGHKa9KBNFrOuEiNSB8+6lChwDZv3XSJOqE+1Clgq/XrTPY09OClKgAutOhTh/WXXfF2A6hIm4a3sTztCnYcdVq/P8f4N8+TcN4ANxM9B9Rk+L2u8IONhIpuDG7kCoCp5u209sng431XGF6nPPaUc4z69zm2WF3x/4eZfxYroF4lzVqOwc9709U9k603bDV5V6DObdcXZKpegToVcs97ZTpbG3qxuYPpl/66xTrN91Zn8r25Dy5dxX7ZhTo1XYsutoj+Sfsyjamnbuet2WbqFKM4h3K06FCdJnVcHA9tF1m+xaDriMqYAQrtn8IYbF3wA7OoTJDNzn7LFWhYjdef8XC0LecyG6PTmH/wKm6Xs9mPO+++XIMW7pDwTipDdmVz/jx06Fcd085Mdp13odvI2gz3NTj8ZRoT1lwi1QYm70oMGuid+1q/XlpCGv1XXKHrmL/Rt4Dt+du6KzqV0d9chawc0nLSaLovHcpXYvLsGnivLaw9kPp1OhM+ukSq7SpUrkjPvt4M+rsjidtTM5m67Lxj1NL1Nlp09GZym2K8ltIuMOuNc2w8mYP98m3UD6nOK71uxxtILez9npJB25mXaR16G4eTLnP4rAstetbgpRZFXjBSU1NZt24dDz30EPfdd1+R+0tps2It5D5qzyrFm+ylOGLifIhY4VPAxgxi1yYS8Ngkx2eEkyrV/ikxKUSPn0pS6BtsXOyH6VIS0UOHMeGTD1jWzRPLhxOYsDeA19YvI8BkIXbqQIa94svGKcEkvT6Mxef68XZsBD4mK4mvDGTMyz58/FIY5sPRRL1ioePSbbxdH1LeG8PA5xbju2YEfsW+N5QCoxQdOnTotx+UfcmYMjjFiFxvM2yGYdgOpRltIi3GqnP59tlzyvAfmW4kF3T8xfNGZOSJ6/c3DOP4+lTjzrEZRnK2YRjGVeP4JycM/6izxnHDMIyMc0ZE/jrOXTI++9Z+fQGnMo0pc08ZC/ZmF9xu63mj35BTxpafC9poNxZHHTOmHLxa8LE/XzKmPJti9NuWW/bFC8aogceM8d86HmcePGtM+SjLyDQMwzh11oiIPG5MyW2HzXLe6Nf/sBHxyWXDMGzGgtFHjIj3fjZshmEY5y4Y44ccMSI336TNBck4Z0T0uLH/rhrJn1mM+3scMe4fmGLc2d9iRP+Qey7nzhuRkceNUStPGxEjjxr3D0k1nnkvyzhT/BpvUmfuuT55xLiz2xGjzWJr8costH/sxuKxR4yI19KMZ8YfMx4cfMyImH/W2HPxtzTWMM58dsLwH5vheO0YhlFo/xTqqrFl/hHj/tcuOK7X5UvGlCEpxqh4x7G2eMfrfH+2YRhGtrHqxSNGh0/yvS6zfzYWPHvE6LD8gnH8cr5ij6QbbQaeNNacumoYxlXjzM5TxoND0ow92XnHpBij9uQYx7edMto8eyp3v+JLfu+44f/ahV9vuFl7LGeNiJGnjS2519d2KM1oM/C0472SfcmYOTLVmHkox7Hx3AVj/JBjxsxifHTYzmQZW47kvrZ/zjLGDzlmTDnoeFjo+/1IuuMzJSNfe/qcNNZYry//+PHjxrJly35V7+7du6/b57333iu6sfK7ZMYMMAL7zjIWPdfdCG0WaIT2mmVsP2UYhpFufDoq3AhtG2oENmlgNGkWaoS2DTVCHxltfHrWMI4sH2CEtw01mgU2MRoENnNsaxtuTI0zDMOwGZ8+G2h0n7zImDVqgNG9fajR+dm3jG8z89d8wvhoUDOjSdupxtdZN2nbJ0ON8Be2O967Nzr2lvFkp/nGt3kfvdlfG1NbdTYmLJhljB7ypNH5kXBjwLyvjXTDMAzjiPHWU+FGaKtAo8l9Q413Y+cbAx4LN8K7zjK+zjYMI/uEsX3eAKNz21AjtFWo0f253LZmf2vMeqSzMXT6aKP7I+HG6HnzjQmDOhuhT71rHMk7i9hZxoCu4Ub4I+FG+OOjjbcSHSdZeP8YxvbxzYzukxcZE3qFG82aNjO6v/CpceLabSTd+HrJUKN7e0e53Z9dZHydnlvfG92NZuO3X+uG/y7obIRO/zqvx4xvl482uncKNzq3DzfCOw0wpsb89/r+i59lhAcGGk+uPPHLc1mfGkMDuxtvpeS7Om90NwKf3WTYjHTj3b6BxoBPci9etmEYSfONzi2nGl9nnzDe7RVoDIjJd2ETZxnhraYaX2cbxpHXOxvNxudev+xfrtH8/QVf78L8rqxzE046UuZK/btzvyn7VsS//M+knweKPdVUMJNn+dzRERfqBLjh/dHPHLhSlTruJv5Z/SzLXz9DaiMTDeq40SLghm/NNc1MHn3z7zyp2y6Q+o/qtHYrYGOKlTVXbmfR3wsYicj6mSUvn2ZXAy9WtcqN50cusYuKvO7veGz+e1Um/z2vHVV4acAVpr6dStPLrjS+1w1wpbFvOciysu90BVo/lDvCV6UijWvALzObBhsX/MAz3zjWE5nu8GDNy540LuJbgfXrMzyxqTwvLf4brau4kPZdGv1nnsLjpb/R1WLjcA7Ub+zJR71csZ/MZNTk08y+qy7zmt4GOZeYOvwUy39ylFUjpAbfDLq98Arz1KzKR29XhQs/s2TeKfrHlGd9hKOD0zad5MEVNsc0tquJyXN96FuziP6xXWB/KhB0OzMHeWG22Vjy8o+M+sCNHf0qFq9/cmxEb7pMi653XBsRLbR/qhd1ki5431HBcb3Km2hyh8F7P2UD5aGCC26Xr2K7AnAV+xUXPNxufA250KCx+3VTxqnf/UzqXR60r+nY17upO03eOMfuExBYG8AgedOPPLrvMoEj6tK1Zr4yb+V63aQ9aYlZ7DmXA3MtLMFxLri6kvoTcCWLraeuwMof+T8cbbMBdU7mQIPCX5gm16scWH+aJecd/089n02TTANwnM9N3+8A7uWok/t5YvJ1J6jCGfYfh66Niz7DZs2aXft/dnZ2cTpFboE9zU7AvPcZbM5g/ahOzH4njJDnAug4byMdsRDdswtJfbcyt22+g/osY2MfSHy5HWOyJ7F1fPCNpWI1BTNiymBMZLB+eCemLQ/m4+F+udvN+DZ9iLBaAXgVOGRrIWadhZBnQwoc0U1asx57h7kEXPfZYcXuN5i5w81gjWNa9ygWNd3IpOa+9HtjI/1Or6J3eAxJOSN49YMR18q1vBPFtIMhLPtkGb6VrMTP7M2YWb58PN0MmAnoO5ewO3vTfX8A214LZnZ4NPGnI/G9FE3UEjv9lm4kxBPsexfQY+xsfD+ZQUiR/XOZ9Es+vLZ8IzOscUR1n8DiuDBmhJrIWDeV2clhvLquIz6udlJWDGTgFB8+eK1j4Rfy9HoWLLESsWEjEZ7AuURik8zX919NP0JahWFukO9ea/LFt0YKcZuTiHjaD7M1idivUrBXtkPOCSynKuBV2UT8i60ZmBTJxpe9MF9KwmL1wreemUVfriclPBJfk5X4bYlY7I41oBZLGh5Vzdi/GEOLiXYmfT4Ys9mC5RRQjM+B0uKkoewPcDXf/90q8vwrd9LtwCX2n7zM/i1nmPq+O6tmFx1YAMixsTrOoMOIigVsNNi1OYsaoX+j/g1b7CetTJj3E2ea1WRNRMViDnO7UD/Em3dDHI9SN1roWMXM841coMglaS607l+bHT0dj9xcXfEu8vwM9iRcgkY1aV0l9ybfuDKBrj+yNdmga2UXMLvRPjdAmmpVpvXdGSw/kQ1NK4BrRUZOrUPf3Nk9t4q/4yVXuSJd76/A/F0/kxrhRh0cU9Y7A67mnvJt1LgWfgrpn6suUKE8Le6viNkVcHejXWB55idexkpFzMXoH+t/zvNezu281SxvQxH980BhU4KFMwV4MrmhhSHjUvF2c8G7sRcvtblhwZ6rC6bfMdSe6VaZeQOyGL0ijY2NatIu7wvPrV6vAttjYLq7Cm9Fefz6NZ4CuFXi+ck1aV3MtYh5ZW5ckcaGqnewYURFTFxmyTgL+2+2+9WbbchVVutQpUim2n74VQXwJCCgNun707HDb1gqUWCpeNWtnVuGJw80v4dpm5PIwA9PAMwE9JlBwM0OPxDDeltH5hY0g22PJ2abDxErbvgBiKsZ37q57wBzMMF+VhYfsEDzfPuV8yG4pW++c7MS/1USPi3n4VvJ0a7gsGB4Lo6knI6ACbMJzJVMuFUyYcKEuZIdux0yvokj8bSV6LG9iXY0DFzNWE4D9Yrqnwp4NQjA0xWoGkBwg8vEnHEsF/p2WzyW5HSiBsQ4drVZMZHCiRzwKqzIqn4E1FzEqinTsNzni2+DAB5ofsPU750dGTfnhnDn6sfgWSOY9soYuqwBryYh+FEBPz8/TNdW7JkIHrSM97O88HFd/8tzw2fQ/8UFDOu8CpNPACG1wOQXwN2u8N/cvcytnuf9leBTNY3FRXXLH+BPudA/75vwzdzszWo/ZWd/FsBVErZfIrVuRRqXB05aWbjBjkfjynRtV53ne7hTJ/3y9b8iPG1l6rzTLPzu15/e9n2ZbKxamccLWkx24QLvHTDRs8X1dxzrdxk8MTMTc3cf3r0xkN1dkRY5P7N2n6Mue+p5pkZfIO2Goq3fpTNkrUG/wdWonxsy/GteYeuu3BGk8z9z4MwNfVO5PHW8Hf+8qxfn8rtQ/64KnD948dovFa0HL5JgreBYY3V3JVpg47ODuf2SdpGtP9xGk/rlrx1vrp6vzsrFCSlXWPtyKv032hxvuSwba/9zmRp3maiRt4ubK97eeeW6FhhMftU/5SvRulEOu/6T2z82O1sTr1Cnvtu1/i+8fy6z5rMsGrStQuC1y1lE/+Qp5PVzU8lnmW+twuaFdVg/uzZv9apcrHVwde6tSJ0fLvLZaQMwSPsmi/2VK9K81i9tDgo106JNTeYF2hm/4ByHc37Z9tuvV+G8/SvR4IiV5SmOZGT9PoP+8zIdI7h13GnhfonVm3N/rfrTRabOOMPWC/kKuGJj9es/MnqDLd8PfAxsVwzczLc53u9Zlzl8/vpflN70/Z67/4ETjvakJVxg1xUTTe685VOVP6uc37K2yk58TCxe3f5FQb+7tW6OId4/go6ev68pv+dLVoGywRTQj1ej3+bt6Ld5O/p9Pv58GZFFBrLC2QHf7nNzy3ybt1d/zMbVI66NCl6+2eCxKYARaz5nbq9gfN2tJK2JolPPxSQV4yPR1DiSGdEb2Rq7kbefMpOUcg8RnXzBtTY+d1zGesEKnr743WmGc+lYK3nhYwaqBtNv3vtsjN3Ix691xJ6YTthjYXgCPj7eZJ6zYjd54tvIExNWrFYvfO64tf65VX/OkbKGlWhPxvUL/XvmjlK5V6L9veeZPe4HFpJvoT9gqu7C/jdOMOq7y2RWdWfys1UcUxlVKuCVlkHksHTstwG40qKP1/VTkWdsbE3IokbDao4F99dcZesWG03aeOFdQFNTd1pJvrcar1z3CzWDLZ+fZ1e6C/teTWX1q7lPu93OoqU1aO1emcljLjN+WSr3vm6AWwW69qqRr/yrHNh4mpEbDbqNrcUg37wbp4lBg6uS/O8f8f8sd6F/MT8YUjdY6Pi+HRtgvWKwZ2gKU13L88ykOgwPr8Gic2lMHXeUtMvgZjbRblANBtUCuJ3Jo6842vqTARXL06bTHUy+t+ibeWF1DnrUg4Q3z/Dg6mxs5W/DP7Aai3pVKua345v1jytdB3lx4vU0WvbNxubqSpOmnizqVrxS7d+fZ/nJijw/7vqp7TqF9k+um75+ClG9AnWOpOP/eAYmV3BzK0eDxh5MHlIF2/t5C+uvwr+PsbUCeLeoyfpeFcG3Oot6pDFh2jFmXwZT9UoMGlPdESSv+wC8jRZ9atDvhR95ZrUbG3pVLLR/D6+10H/TFez5Fvqb7q5GzHMepL5TSHvqVOP1/jlMmH+ce20GbmYTPXvlTiOWr8jzY6ozddmPtFxrQIVyBD7sRVDlfBXbrvB/iT+z5dJlxnVwy30f3Eb7R6uxdfEZHj1UDu8qJgIfqMCS6B9ZfWctWlDI+x3ArTz2hNN0nGkjOac83QbUoGtlfuXcuXPMmTOn0Mv097//vdDtUnZMrkCBIcGOJelbMnLC8LSn8OnmJHzuHccvH5dWElfMZpUlmMHjO+Kb/y17LpaYb/yIGFXQh6uF9WtTCBkS/Ov3Uk4aSfss2Ov7wPH1rE80E9C1oB8J5GcmuJkfi3d8Skq3fo7py9h4CHYsRo8r5EjP4GB8l8Sw6kAYgxubsO5dTNRqL8bNiSCv1pv3z82YeKBlALNWryK+0ziCq9pJeS+KBfbBvNrHF3NNL9gQT+KlEAJcLSQdTftl+Ozoehbv9uLRnmF0bAphgZDYKwWLHfwq5e5zfD2zX4/H3G0cg5sWMHd0OpZpz8XgNeRtImoCeBLSNoBFa1aR2GowAe4ZxK6Oxdpy3PVTx/YUYsZHEec/jpVtHeX6tgrDe0gMMUeDiawHKWtWEWcO49VGv6U/SkGJrU4rQEkufrtVx9enGg3mZBa8KPNWnDlnRA45Y+y8XMC2bJuxYPRxY8EPJV2p/PXlGFteO2pEfpHvhXXxgjF+8FFjyu9YiPq/ptD3+5F0o83A08bO3/D7FykbmTEDjMBBHxl5S7VPLO9uBI7adN11PbJ8gBHe6vqF/nlsCfONJ9uGFrjQ/8k5bxlT+4YbzZoGGuFDbr7Qf/sNC/1PrB5gdH7p24JfW0mLjO6PLbq20P6a3EXkU9+YbwzoGmoENg01npy3/dcL/Rs1MZrltXVrbg3ZJ4xNc3LPsVWo0X1U/oX+A4yP0h39FDr5a8PI/taY3+lJ461juW39fJYxoH2o0axVMyO061Bj0a7065pVcP/kLvR/I2+xfabx6ZBA48nVecemG1+/PtTo3KqZEdoq1Oj81CxjkyWvwCPGu6M6G82aNjPC+041Fr2Qb6F/1n+Nj6YPMDo/Em6Etw83wts/aUz95MivF/rfd8NC/7xWJCwyBrTvbIyOueGY7HRj+5wBRnizQCOwaajR+bkbruWp7cb8XuFG9+mb8v1YwTAMw2Yc+WSq8WTbZkZg02ZG6OMTjI+Sf19CKMms42IYxu//K5JFSE5OpkGDgv5o1x8vdcMJ2h70YN9z5ltci3C9w++nMooarO/x61Lt36XR9uMKxEypUuAomkhhUuPOMHqdHVt5ABfIAY+7zUzu70H937T+6n9Poe/3lAzazslh8qIatCjLn75LGbGzfngLYoI/5+3Hf+McY04Ki3tGwYvvM/jGRcLYiX+xC9ENVrLssRvKzYlnWtvZeC39uIDj5M+uJLPOn3P68neo06E2hzqUfLn1e9Rh/U22me71Zse9N9koUoQ6ITX4KKSsW/HnVOj73deTzUv/0ObIX4Q9IYb15o6sLChYWeOI2e1HxLO/czGZCPA/M1ImIiIiUtJKMuv8SX99KSIiIvLXolAmIiIi4gQUykREREScgEKZiIiIiBNQKBMRERFxAgplIiIiIk5AoUxERETECSiUiYiIiDgBhTIRERERJ6BQJiIiIuIEFMpEREREnIBCmYiIiIgTUCgTERERcQIKZSIiIiJOoFRDmYuLC1evXi3NKkRERETKhGEYuLi4lFh5pRrK3N3dsVqtpVmFiIiISJm4ePEi7u7uJVZeqYayatWqkZ6ezvnz5zViJiIiIn8JV69e5fz585w+fZpq1aqVWLkuhmEYJVZaAWw2G2fPniUrK4tSrkpERESk1Lm4uODu7k61atVwc3MruXJLO5SJiIiISNH060sRERERJ6BQJiIiIuIEFMpEREREnIBCmYiIiIgTUCgTERERcQIKZSIiIiJOQKFMRERExAkolImIiIg4AYUyERERESegUCYiIiLiBBTKRERERJyAQpmIiIiIE/h/kG4WhyeRoy4AAAAASUVORK5CYII=;" vertex="1" parent="1">
          <mxGeometry width="613" height="549" as="geometry" />
        </mxCell>
        <mxCell id="fAqAJMAxcw6unGzzySJF-2" value="" style="rounded=0;whiteSpace=wrap;html=1;strokeWidth=5;strokeColor=#FF2617;fillColor=none;" vertex="1" parent="1">
          <mxGeometry x="20" y="440" width="350" height="100" as="geometry" />
        </mxCell>
      </root>
    </mxGraphModel>
  </diagram>
</mxfile>
